<?xml version="1.0" encoding="UTF-8" standalone="no"?>
<!-- Creator: CorelDRAW 2019 (64-Bit) -->

<svg
   xml:space="preserve"
   width="2439px"
   height="1682px"
   version="1.1"
   style="shape-rendering:geometricPrecision; text-rendering:geometricPrecision; image-rendering:optimizeQuality; fill-rule:evenodd; clip-rule:evenodd"
   viewBox="0 0 2439 1682.25"
   id="svg481"
   sodipodi:docname="banner-shop.svg"
   inkscape:version="1.2.2 (b0a84865, 2022-12-01)"
   xmlns:inkscape="http://www.inkscape.org/namespaces/inkscape"
   xmlns:sodipodi="http://sodipodi.sourceforge.net/DTD/sodipodi-0.dtd"
   xmlns="http://www.w3.org/2000/svg"
   xmlns:svg="http://www.w3.org/2000/svg"><sodipodi:namedview
   id="namedview483"
   pagecolor="#ffffff"
   bordercolor="#000000"
   borderopacity="0.25"
   inkscape:showpageshadow="2"
   inkscape:pageopacity="0.0"
   inkscape:pagecheckerboard="0"
   inkscape:deskcolor="#d1d1d1"
   showgrid="false"
   inkscape:zoom="0.47919144"
   inkscape:cx="1218.7196"
   inkscape:cy="841"
   inkscape:window-width="1424"
   inkscape:window-height="956"
   inkscape:window-x="0"
   inkscape:window-y="25"
   inkscape:window-maximized="0"
   inkscape:current-layer="_3154179804464" />
 <defs
   id="defs57">
  <style
   type="text/css"
   id="style2">
   <![CDATA[
    .str0 {stroke:#FEFEFE;stroke-width:23.03;stroke-miterlimit:22.9256}
    .fil23 {fill:none}
    .fil5 {fill:black}
    .fil2 {fill:#009640}
    .fil24 {fill:#1F0047}
    .fil15 {fill:#263238}
    .fil20 {fill:#455A64}
    .fil27 {fill:#525353}
    .fil32 {fill:#676A6A}
    .fil30 {fill:#8B7460}
    .fil33 {fill:#909393}
    .fil36 {fill:#9F2255}
    .fil26 {fill:#A0DBE8}
    .fil28 {fill:#AA9678}
    .fil31 {fill:#BBBCBD}
    .fil29 {fill:#C0B098}
    .fil25 {fill:#E2066F}
    .fil34 {fill:#E2DDDB}
    .fil3 {fill:#E30613}
    .fil14 {fill:#EB996E}
    .fil4 {fill:#F39200}
    .fil16 {fill:#F39C12}
    .fil35 {fill:#FBB040}
    .fil12 {fill:#FDF3E5}
    .fil22 {fill:#FEFEFE}
    .fil13 {fill:#FFBE9D}
    .fil0 {fill:white}
    .fil19 {fill:black;fill-opacity:0.090196}
    .fil21 {fill:black;fill-opacity:0.301961}
    .fil18 {fill:white;fill-opacity:0.360784}
    .fil17 {fill:white;fill-opacity:0.600000}
    .fil6 {fill:url(#id0)}
    .fil1 {fill:url(#id1)}
    .fil7 {fill:url(#id2)}
    .fil10 {fill:url(#id3)}
    .fil9 {fill:url(#id4)}
    .fil8 {fill:url(#id5)}
    .fil11 {fill:url(#id6)}
   ]]>
  </style>
  <linearGradient
   id="id0"
   gradientUnits="userSpaceOnUse"
   x1="-697.39"
   y1="728.36"
   x2="-697.39"
   y2="-285.32">
   <stop
   offset="0"
   style="stop-opacity:1; stop-color:#FEF0E1"
   id="stop4" />
   <stop
   offset="1"
   style="stop-opacity:1; stop-color:#F6A351"
   id="stop6" />
  </linearGradient>
  <linearGradient
   id="id1"
   gradientUnits="userSpaceOnUse"
   x1="-51.75"
   y1="681.57"
   x2="-51.75"
   y2="-1024.53">
   <stop
   offset="0"
   style="stop-opacity:1; stop-color:#EFF1F4"
   id="stop9" />
   <stop
   offset="0.160784"
   style="stop-opacity:1; stop-color:white"
   id="stop11" />
   <stop
   offset="0.388235"
   style="stop-opacity:1; stop-color:white"
   id="stop13" />
   <stop
   offset="0.529412"
   style="stop-opacity:1; stop-color:#DEDFE0"
   id="stop15" />
   <stop
   offset="0.690196"
   style="stop-opacity:1; stop-color:#F0F0F1"
   id="stop17" />
   <stop
   offset="0.85098"
   style="stop-opacity:1; stop-color:#FBFBFC"
   id="stop19" />
   <stop
   offset="1"
   style="stop-opacity:1; stop-color:white"
   id="stop21" />
  </linearGradient>
  <linearGradient
   id="id2"
   gradientUnits="userSpaceOnUse"
   x1="-513.36"
   y1="-815.55"
   x2="-513.36"
   y2="-1046.36">
   <stop
   offset="0"
   style="stop-opacity:1; stop-color:#F07E00"
   id="stop24" />
   <stop
   offset="1"
   style="stop-opacity:1; stop-color:#F07E00"
   id="stop26" />
  </linearGradient>
  <linearGradient
   id="id3"
   gradientUnits="userSpaceOnUse"
   x1="-282.56"
   y1="382.15"
   x2="-282.56"
   y2="335.36">
   <stop
   offset="0"
   style="stop-opacity:1; stop-color:#C3DDBA"
   id="stop29" />
   <stop
   offset="1"
   style="stop-opacity:1; stop-color:#BAD8B2"
   id="stop31" />
  </linearGradient>
  <linearGradient
   id="id4"
   gradientUnits="userSpaceOnUse"
   x1="-29.92"
   y1="775.15"
   x2="-29.92"
   y2="-746.94">
   <stop
   offset="0"
   style="stop-opacity:1; stop-color:#E9F3E6"
   id="stop34" />
   <stop
   offset="1"
   style="stop-opacity:1; stop-color:#0F9F40"
   id="stop36" />
  </linearGradient>
  <linearGradient
   id="id5"
   gradientUnits="userSpaceOnUse"
   x1="-376.13"
   y1="-169.92"
   x2="-376.13"
   y2="-609.7">
   <stop
   offset="0"
   style="stop-opacity:1; stop-color:#F6A757"
   id="stop39" />
   <stop
   offset="1"
   style="stop-opacity:1; stop-color:#F18618"
   id="stop41" />
  </linearGradient>
  <linearGradient
   id="id6"
   gradientUnits="userSpaceOnUse"
   x1="615.72"
   y1="544.34"
   x2="615.72"
   y2="-1046.36">
   <stop
   offset="0"
   style="stop-opacity:1; stop-color:#FDE9DF"
   id="stop44" />
   <stop
   offset="0.0784314"
   style="stop-opacity:1; stop-color:#FCDACC"
   id="stop46" />
   <stop
   offset="0.239216"
   style="stop-opacity:1; stop-color:#F6B199"
   id="stop48" />
   <stop
   offset="0.458824"
   style="stop-opacity:1; stop-color:#EC684E"
   id="stop50" />
   <stop
   offset="0.65098"
   style="stop-opacity:1; stop-color:#E3151D"
   id="stop52" />
   <stop
   offset="1"
   style="stop-opacity:1; stop-color:#E3131D"
   id="stop54" />
  </linearGradient>
 </defs>
<symbol
   id="IAI"
   viewBox="-1173.13 -1136.16 2423.98 1978.46">
 <path
   class="fil0"
   d="M676.01 -923.75c-85.4,-60.05 -166.21,-92.36 -242.41,-92.36 -64.62,0 -115.4,20.77 -150.02,60.04 -20.81,23.08 -34.66,53.09 -41.58,87.71 -30,-20.77 -71.55,-46.16 -124.67,-71.55 -122.33,-60.04 -219.3,-92.35 -293.19,-92.35 -50.77,0 -90.01,13.84 -117.71,43.85 -27.69,30 -41.57,71.58 -41.57,126.97 0,16.16 2.3,43.86 4.61,83.13 2.31,39.23 4.62,69.24 4.62,94.63l-13.85 0c-71.55,-108.48 -152.36,-193.91 -235.45,-256.23 -85.43,-62.35 -166.22,-92.35 -242.41,-92.35 -64.63,0 -115.44,20.77 -150.06,60.04 -34.62,39.24 -50.78,99.25 -50.78,175.44 0,131.59 20.78,249.31 62.32,355.51 41.58,106.2 96.97,184.68 166.21,233.18 48.51,34.62 113.13,64.62 193.94,92.32 80.79,27.73 147.75,39.27 196.22,39.27 16.16,0 27.7,-2.31 36.93,-9.23 6.93,-4.62 11.54,-16.16 11.54,-30.01 0,-13.88 -6.92,-25.42 -23.08,-34.65 -16.16,-9.23 -43.85,-18.46 -80.78,-25.39l-25.42 -373.97 -2.31 -4.65c-9.23,-90.01 -16.16,-154.67 -27.7,-198.52 53.12,50.78 94.67,99.28 129.29,145.44 34.62,46.16 55.39,83.12 64.62,117.74l69.28 934.96c-4.62,0 -9.24,-2.31 -13.85,-4.62 -32.32,-11.54 -53.09,-16.15 -60.04,-16.15 -11.54,0 -18.47,2.3 -23.08,6.92 -4.62,4.62 -6.93,11.54 -6.93,23.08 0,27.7 43.85,62.35 129.28,101.59 85.43,39.24 166.22,57.7 240.11,57.7 64.62,0 110.78,-16.16 138.51,-48.47 30.01,-36.96 43.86,-87.74 43.86,-159.29 0,-4.61 0,-11.54 -2.31,-20.77 0,-9.26 -2.31,-18.5 -2.31,-23.11l-85.43 -1188.91c23.11,6.95 50.81,20.8 83.12,36.96 16.16,9.23 30.01,13.85 41.55,18.46 2.31,126.98 20.77,240.07 62.35,343.97 41.54,106.2 96.94,184.68 166.21,233.18 48.47,34.62 113.09,64.62 193.91,92.32 80.78,27.73 147.75,39.27 196.22,39.27 16.15,0 30,-2.31 36.96,-9.23 6.92,-4.62 11.54,-16.16 11.54,-30.01 0,-13.88 -6.93,-25.42 -23.12,-34.65 -16.15,-9.23 -41.54,-18.46 -80.78,-25.39l-27.69 -373.97 -2.31 -4.65c-6.93,-90.01 -16.16,-154.67 -27.7,-198.52 -32.34,-161.6 -50.81,-177.75 -64.66,-184.68l0 0 0 0zm-1382.82 1004.23c80.79,0 150.06,36.93 207.76,110.78 57.73,73.89 87.74,161.6 87.74,263.19 0,69.27 -16.16,126.97 -48.47,166.21 -32.34,41.54 -76.2,60.04 -131.59,60.04 -83.12,0 -154.67,-36.96 -212.4,-110.82 -57.71,-73.89 -87.71,-161.59 -87.71,-265.49 0,-73.89 16.15,-129.28 48.47,-168.52 32.31,-34.62 78.5,-55.39 136.21,-55.39l0 0 -0.01 0zm1253.54 16.15c80.81,0 150.05,36.93 207.79,110.79 57.7,73.89 87.7,161.63 87.7,263.18 0,69.28 -16.15,124.67 -48.47,166.21 -32.31,41.58 -76.19,60.05 -131.59,60.05 -83.09,0 -154.67,-36.96 -212.37,-110.82 -57.73,-73.89 -87.74,-161.6 -87.74,-265.49 0,-73.86 16.16,-129.29 48.47,-168.52 34.65,-36.93 78.5,-55.4 136.21,-55.4l0 0z"
   id="path59" />
 <path
   class="fil1"
   d="M676.01 -923.75c-85.4,-60.05 -166.21,-92.36 -242.41,-92.36 -64.62,0 -115.4,20.77 -150.02,60.04 -20.81,23.08 -34.66,53.09 -41.58,87.71 -30,-20.77 -71.55,-46.16 -124.67,-71.55 -122.33,-60.04 -219.3,-92.35 -293.19,-92.35 -50.77,0 -90.01,13.84 -117.71,43.85 -27.69,30 -41.57,71.58 -41.57,126.97 0,16.16 2.3,43.86 4.61,83.13 2.31,39.23 4.62,69.24 4.62,94.63l-13.85 0c-71.55,-108.48 -152.36,-193.91 -235.45,-256.23 -85.43,-62.35 -166.22,-92.35 -242.41,-92.35 -64.63,0 -115.44,20.77 -150.06,60.04 -34.62,39.24 -50.78,99.25 -50.78,175.44 0,131.59 20.78,249.31 62.32,355.51 41.58,106.2 96.97,184.68 166.21,233.18 48.51,34.62 113.13,64.62 193.94,92.32 80.79,27.73 147.75,39.27 196.22,39.27 16.16,0 27.7,-2.31 36.93,-9.23 6.93,-4.62 11.54,-16.16 11.54,-30.01 0,-13.88 -6.92,-25.42 -23.08,-34.65 -16.16,-9.23 -43.85,-18.46 -80.78,-25.39l-25.42 -373.97 -2.31 -4.65c-9.23,-90.01 -16.16,-154.67 -27.7,-198.52 53.12,50.78 94.67,99.28 129.29,145.44 34.62,46.16 55.39,83.12 64.62,117.74l69.28 934.96c-4.62,0 -9.24,-2.31 -13.85,-4.62 -32.32,-11.54 -53.09,-16.15 -60.04,-16.15 -11.54,0 -18.47,2.3 -23.08,6.92 -4.62,4.62 -6.93,11.54 -6.93,23.08 0,27.7 43.85,62.35 129.28,101.59 85.43,39.24 166.22,57.7 240.11,57.7 64.62,0 110.78,-16.16 138.51,-48.47 30.01,-36.96 43.86,-87.74 43.86,-159.29 0,-4.61 0,-11.54 -2.31,-20.77 0,-9.26 -2.31,-18.5 -2.31,-23.11l-85.43 -1188.91c23.11,6.95 50.81,20.8 83.12,36.96 16.16,9.23 30.01,13.85 41.55,18.46 2.31,126.98 20.77,240.07 62.35,343.97 41.54,106.2 96.94,184.68 166.21,233.18 48.47,34.62 113.09,64.62 193.91,92.32 80.78,27.73 147.75,39.27 196.22,39.27 16.15,0 30,-2.31 36.96,-9.23 6.92,-4.62 11.54,-16.16 11.54,-30.01 0,-13.88 -6.93,-25.42 -23.12,-34.65 -16.15,-9.23 -41.54,-18.46 -80.78,-25.39l-27.69 -373.97 -2.31 -4.65c-6.93,-90.01 -16.16,-154.67 -27.7,-198.52 -32.34,-161.6 -50.81,-177.75 -64.66,-184.68l0 0 0 0zm-1382.82 1004.23c80.79,0 150.06,36.93 207.76,110.78 57.73,73.89 87.74,161.6 87.74,263.19 0,69.27 -16.16,126.97 -48.47,166.21 -32.34,41.54 -76.2,60.04 -131.59,60.04 -83.12,0 -154.67,-36.96 -212.4,-110.82 -57.71,-73.89 -87.71,-161.59 -87.71,-265.49 0,-73.89 16.15,-129.28 48.47,-168.52 32.31,-34.62 78.5,-55.39 136.21,-55.39l0 0 -0.01 0zm1253.54 16.15c80.81,0 150.05,36.93 207.79,110.79 57.7,73.89 87.7,161.63 87.7,263.18 0,69.28 -16.15,124.67 -48.47,166.21 -32.31,41.58 -76.19,60.05 -131.59,60.05 -83.09,0 -154.67,-36.96 -212.37,-110.82 -57.73,-73.89 -87.74,-161.6 -87.74,-265.49 0,-73.86 16.16,-129.29 48.47,-168.52 34.65,-36.93 78.5,-55.4 136.21,-55.4l0 0z"
   id="path61" />
 <path
   class="fil2"
   d="M-355.92 -937.6l-6.92 -115.44 103.89 4.62c-20.77,9.23 -41.54,20.77 -57.73,39.24 -18.46,18.46 -30,43.88 -39.24,71.58z"
   id="path63" />
 <path
   class="fil2"
   d="M-25.77 -1034.57l228.53 11.54 6.93 96.97c-23.08,-13.85 -48.47,-27.7 -78.48,-41.58 -57.73,-30 -110.82,-50.78 -156.98,-66.93z"
   id="path65" />
 <path
   class="fil2"
   d="M-346.68 516.76c25.42,20.81 62.35,41.58 113.12,64.66 90.05,39.24 175.45,60.01 251.65,60.01 71.55,0 126.97,-20.77 163.9,-60.01 32.31,-36.93 50.78,-96.97 50.78,-175.44 0,-4.62 0,-11.54 -2.31,-23.11 0,-6.93 -2.31,-13.85 -2.31,-20.78l0 -2.31 -83.09 -1138.09c11.54,6.92 20.77,11.54 32.31,18.46 9.23,4.62 16.16,9.23 25.39,11.54 2.31,99.28 18.47,191.6 43.86,277.03l99.27 1228.15 -768.74 46.16 0 -25.39 55.39 4.61 18.47 2.31 0 0 2.31 -267.8 0 0 0 0z"
   id="path67" />
 <path
   class="fil2"
   d="M-323.57 389.82c-2.34,0 -6.96,0 -9.23,0l43.85 -62.35 4.62 69.28c-20.78,-4.62 -30.01,-6.93 -39.24,-6.93l0 0z"
   id="path69" />
 <path
   class="fil3"
   d="M867.61 549.11c4.65,-23.11 6.96,-48.5 6.96,-78.51 0,-108.51 -32.35,-203.14 -94.66,-283.95 -64.66,-80.78 -143.14,-122.36 -233.18,-122.36 -69.24,0 -122.36,23.11 -159.29,71.58 -23.08,27.7 -36.93,62.32 -46.16,103.89l-16.16 -198.55 -30 -390.13c39.23,80.78 87.7,140.83 150.05,182.37 48.47,36.93 117.71,69.24 203.14,94.66 85.4,27.7 152.37,41.55 205.45,41.55 25.39,0 41.58,-4.62 55.43,-16.16 13.85,-11.54 23.08,-27.7 25.39,-50.81l0 -2.31c0,-18.46 -6.93,-41.54 -36.93,-62.31 -16.16,-9.24 -36.96,-18.47 -69.27,-25.39l-25.39 -353.23 -2.31 -6.93c-9.23,-94.63 -18.47,-156.98 -27.7,-198.52 -34.62,-161.6 -55.42,-186.99 -78.5,-203.14 -92.33,-66.97 -177.76,-96.97 -260.88,-96.97 -73.86,0 -133.87,23.08 -173.14,71.58 -4.61,6.92 -11.54,13.84 -16.15,23.08l-9.23 -124.67 535.59 20.77 267.8 1290.5 -55.42 343.96 -115.44 -30 0 0z"
   id="path71" />
 <path
   class="fil4"
   d="M-808.39 -180.4c50.81,36.93 117.74,69.24 203.17,94.63 85.4,27.73 152.33,41.58 205.45,41.58 25.39,0 43.85,-4.62 55.39,-16.16 4.62,-4.61 9.24,-9.23 13.85,-13.85l25.42 373.98 -73.89 103.89 0 18.46c-6.92,-94.66 -36.93,-177.75 -92.35,-249.33 -64.63,-83.09 -143.13,-124.67 -233.15,-124.67 -69.27,0 -122.36,23.11 -159.29,71.58 -36.96,43.86 -55.42,108.51 -55.42,189.3 0,110.82 32.31,205.48 94.66,283.95 64.63,80.82 143.13,122.36 237.8,122.36 64.62,0 117.71,-25.39 156.98,-73.89 32.31,-41.54 50.77,-94.63 53.08,-159.29l0 228.57 0 34.62 -757.2 -62.32 191.6 -1022.7c34.65,69.24 78.5,122.36 133.9,159.29l0 0z"
   id="path73" />
 <path
   class="fil4"
   d="M-559.06 -965.3c-48.47,-34.65 -94.66,-60.04 -140.82,-76.2l297.8 -27.69 18.47 277.03c-53.09,-69.28 -113.13,-126.98 -175.45,-173.14l0 0z"
   id="path75" />
 <path
   class="fil4"
   d="M-427.47 -201.17l-25.39 -355.54 -2.3 -6.92c-2.31,-36.93 -6.96,-69.25 -9.24,-94.67 20.78,23.12 39.24,46.2 55.4,66.97 18.46,25.39 32.31,48.47 43.85,69.24l25.39 362.46c-4.62,-4.61 -11.54,-11.54 -20.77,-16.15 -13.85,-9.23 -34.62,-18.47 -66.94,-25.39l0 0z"
   id="path77" />
 <path
   class="fil5"
   d="M1073.09 -771.39c101.56,0 177.76,-80.81 177.76,-182.37 0,-103.89 -78.51,-182.4 -180.06,-182.4 -101.59,0 -180.06,80.81 -180.06,182.4 0,101.56 80.78,182.37 182.36,182.37 0,0 0,0 0,0l0 0zm-2.31 -27.7c-85.43,0 -147.74,-69.27 -147.74,-154.67 0,-85.43 64.62,-154.67 150.05,-154.67 85.4,0 147.75,69.24 147.75,154.67 0,85.4 -62.35,154.67 -150.06,154.67l0 0zm-27.69 -253.95l-43.89 0 0 191.6c18.47,2.31 41.58,6.93 73.89,6.93 36.93,0 53.09,-4.62 66.94,-16.16 11.54,-9.23 18.46,-23.08 18.46,-41.54 0,-23.08 -16.15,-39.24 -39.24,-46.16l0 -2.31c18.47,-4.62 30.01,-20.81 34.63,-46.2 6.92,-30 9.23,-41.54 13.84,-46.16l-48.47 0c-6.92,6.93 -9.23,23.08 -16.15,46.16 -4.62,20.78 -16.16,30.01 -39.24,30.01l-20.77 0c0,0 0,-76.17 0,-76.17l0 0zm0 108.51l20.77 0c25.39,0 43.86,6.93 43.86,27.7 0,18.46 -13.85,30 -41.55,30 -11.54,0 -20.8,0 -25.42,-2.3l2.34 -55.4 0 0 0 0z"
   id="path79" />
 <path
   class="fil5"
   d="M1008.44 616.04l-150.06 -34.62c-9.23,30.01 -23.08,55.4 -39.24,78.48 -39.24,48.5 -92.35,73.89 -156.98,73.89 -92.35,0 -173.14,-41.55 -237.79,-122.36 -30.01,-39.24 -55.4,-83.09 -69.24,-129.29l25.38 309.35 -835.67 50.81 2.3 -62.35 -720.27 -60.01 205.45 -1098.9c-6.93,-13.84 -13.85,-30 -18.47,-43.85 -41.54,-110.82 -64.62,-233.15 -64.62,-367.05 0,-83.12 20.77,-150.05 57.7,-196.24 39.24,-46.17 99.28,-71.55 173.14,-71.55 4.61,0 6.92,0 11.54,0l443.24 -43.86 2.31 20.77 570.22 32.32 -6.93 -64.63 597.92 23.08 272.42 1318.19 0 2.31 -62.35 385.51 0 0zm-530.96 -48.47c53.09,66.94 113.13,96.94 186.99,96.94 46.16,0 80.81,-16.15 106.2,-48.47 27.7,-34.62 41.55,-83.09 41.55,-147.74 0,-92.36 -27.7,-175.45 -80.78,-244.72 -53.12,-66.93 -113.13,-99.25 -182.4,-99.25 -48.47,0 -85.4,16.16 -110.79,48.47 -27.73,32.31 -41.58,83.12 -41.58,147.75 0,99.28 27.7,182.37 80.81,247.02zm-129.28 189.3l-101.58 -1228.15c-25.39,-85.43 -41.55,-177.75 -43.86,-277.03 -6.92,-2.31 -16.16,-6.92 -25.39,-11.54 -11.54,-6.92 -23.08,-11.54 -32.31,-16.16l83.09 1138.1 0 2.31c0,4.65 0,11.54 2.31,20.8 2.31,11.54 2.31,18.47 2.31,23.09 0,78.47 -18.47,136.2 -50.78,175.44 -34.62,39.24 -90.05,60.01 -163.91,60.01 -78.5,0 -161.59,-20.77 -251.64,-60.01 -50.78,-23.08 -87.74,-43.85 -113.12,-64.63l0 267.77 0 0 -18.47 -2.31 -55.39 -4.61 0 25.42 768.74 -48.5 0 0zm-711.04 -1276.65c-11.54,-20.77 -25.39,-43.85 -43.86,-69.24 -16.15,-20.77 -34.62,-43.86 -55.39,-66.94 2.31,27.7 6.93,60.02 9.23,94.64l2.31 6.92 25.39 355.54c32.31,6.92 53.09,16.15 69.24,25.39 9.23,4.61 13.85,11.54 20.77,16.15l-27.69 -362.46 0 0zm76.2 847.25l-43.86 62.35c2.31,0 4.62,0 9.24,0 6.92,0 16.15,2.31 41.54,9.23l-6.92 -71.58 0 0zm-849.56 357.85l757.2 62.31 0 -34.62 0 -228.56c-4.61,64.66 -23.08,117.75 -53.08,156.98 -39.27,48.47 -92.36,73.89 -156.98,73.89 -92.36,0 -173.14,-41.57 -237.8,-122.36 -62.32,-78.5 -94.63,-173.13 -94.63,-283.95 0,-80.82 18.46,-143.14 55.39,-189.3 36.93,-46.19 92.36,-71.58 159.29,-71.58 90.05,0 168.52,41.58 233.18,124.67 55.39,71.58 87.71,154.67 92.32,249.33l0 -18.46 73.89 -103.89 -25.39 -374.01c-2.34,4.62 -6.95,11.54 -13.88,13.85 -13.84,11.57 -32.31,16.19 -55.39,16.19 -53.09,0 -120.05,-13.85 -205.45,-41.58 -83.12,-27.69 -152.36,-60.01 -203.17,-94.63 -53.09,-36.93 -96.94,-90.04 -133.9,-156.98l-191.6 1022.7 0 0zm694.88 -228.57c0,-94.66 -27.69,-175.44 -80.81,-244.71 -53.08,-66.94 -113.13,-99.25 -182.37,-99.25 -48.47,0 -85.43,16.16 -110.82,48.47 -27.69,32.31 -41.54,83.12 -41.54,147.75 0,94.66 27.69,177.75 80.78,244.71 53.12,66.94 113.13,96.94 186.99,96.94 46.19,0 80.81,-16.15 106.2,-48.47 27.73,-34.62 41.58,-83.12 41.58,-145.44l-0.01 0zm-547.13 -1253.53c0,126.98 20.77,242.38 60.04,343.97 39.23,101.58 90.01,173.13 156.98,219.29 43.85,32.35 106.17,62.35 184.67,87.74 78.48,25.39 140.83,36.93 186.99,36.93 9.23,0 13.85,-2.31 16.16,-2.31 0,0 0,-2.3 0,-4.61 0,-2.31 -4.62,-4.62 -9.24,-6.93 -6.92,-4.61 -23.08,-11.54 -69.24,-20.77l-23.11 -4.62 -30 -397.08 -2.31 -4.62 0 -2.3c-9.23,-90.02 -16.16,-154.68 -25.39,-193.91l-25.39 -108.51 78.47 78.5c55.43,53.09 96.97,101.56 131.6,150.06 36.92,48.47 60.04,90.01 71.58,126.97l0 2.31 73.85 981.12 -41.54 -11.54c-4.62,0 -9.23,-2.31 -16.16,-4.62l-2.31 0c-30,-9.23 -43.88,-13.84 -48.5,-13.84 2.31,6.92 20.81,30 110.82,69.27 83.12,36.93 159.29,55.39 226.25,55.39 55.4,0 92.33,-11.54 115.41,-39.23 23.11,-25.42 34.65,-71.59 34.65,-133.9 0,-2.31 0,-6.93 -2.31,-16.16 -2.31,-9.23 -2.31,-18.47 -2.31,-25.42l-85.43 -1235.07 43.86 13.85c25.42,6.92 53.11,20.77 87.74,39.24 13.84,6.95 27.69,13.88 36.93,18.49l20.77 6.93 0 20.77c2.31,122.36 20.8,233.15 60.04,332.42 39.24,103.9 90.01,175.45 156.98,221.64 43.85,32.31 106.2,62.32 184.68,87.71 78.5,25.39 140.82,36.93 186.98,36.93 9.23,0 13.85,-2.31 16.16,-2.31 0,0 0,-2.31 0,-4.62 0,-2.31 -4.62,-4.61 -6.93,-6.92 -6.92,-4.62 -25.39,-11.54 -69.24,-20.78l-23.08 -4.61 -27.7 -397.08 -2.33 -4.62 0 -2.31c-9.24,-90.01 -16.16,-154.67 -25.39,-193.91 -13.85,-69.24 -34.62,-154.67 -53.09,-166.21 -83.12,-57.73 -154.67,-87.74 -223.94,-87.74 -55.4,0 -96.94,16.16 -124.64,48.5 -16.19,18.47 -27.73,43.86 -34.65,76.17l-11.54 46.16 -43.86 -30c-27.69,-20.78 -69.24,-43.86 -122.36,-69.25 -117.71,-57.7 -210.06,-87.74 -279.33,-87.74 -41.55,0 -71.55,11.54 -94.64,34.66 -20.77,23.08 -32.31,57.7 -32.31,106.17 0,16.15 2.31,48.5 4.62,80.81 2.31,32.31 4.61,64.63 4.61,94.63l2.31 32.35 -64.65 0 -9.24 -13.85c-69.24,-106.2 -147.74,-189.32 -228.53,-247.03 -80.81,-57.7 -154.67,-87.74 -223.94,-87.74 -55.4,0 -96.94,16.16 -124.67,48.51 -27.7,34.62 -43.85,87.7 -43.85,154.67l0 0zm288.57 -244.72c46.16,16.16 92.35,41.55 140.82,76.2 62.32,43.85 120.05,101.55 175.45,170.83l-18.47 -277.03 -297.8 30 0 0zm343.96 103.9c9.24,-27.7 20.78,-50.81 39.27,-71.58 16.16,-16.16 34.62,-30.01 57.7,-39.24l-103.89 -4.62 6.92 115.44zm558.68 -85.43l-228.53 -11.54c48.47,16.15 99.25,36.93 156.98,66.96 30.01,16.16 57.7,30.01 78.48,41.55l-6.93 -96.97 0 0zm567.91 -36.93l-535.59 -20.77 9.23 124.66c4.61,-6.95 9.23,-16.19 16.15,-23.11 39.27,-46.16 99.28,-71.55 173.14,-71.55 83.12,0 168.55,32.31 260.87,96.94 23.09,16.19 43.86,41.58 78.51,205.48 9.23,41.55 18.46,106.2 27.7,198.53l2.3 6.92 25.39 355.54c30.01,6.92 53.12,16.15 69.28,25.39 30,20.77 36.93,43.85 36.93,62.32l0 2.3c-2.31,23.12 -11.54,41.58 -25.39,53.12 -13.85,11.54 -32.35,16.16 -55.43,16.16 -53.08,0 -120.02,-13.85 -205.45,-41.58 -83.12,-27.7 -152.36,-60.01 -203.14,-94.63 -60.04,-43.85 -110.82,-103.9 -150.05,-182.37l32.31 387.82 16.16 198.52c9.23,-41.54 23.08,-76.16 46.16,-103.86 36.96,-46.16 92.35,-71.58 159.29,-71.58 90.04,0 168.52,41.58 233.17,124.67 62.32,80.81 94.67,175.44 94.67,283.95 0,27.7 -2.31,53.09 -6.93,78.51l115.4 27.7 55.43 -343.97 -270.11 -1295.11 0 0z"
   id="path81" />
 <path
   class="fil6"
   d="M-1122.35 676.08l447.86 36.93c-60.01,-18.46 -113.13,-55.42 -159.29,-113.12 -64.63,-80.82 -96.97,-177.76 -96.97,-290.88 0,-83.09 18.49,-147.75 57.73,-196.22 39.24,-50.81 96.94,-73.89 168.52,-73.89 94.66,0 175.45,43.85 242.38,126.97 48.5,60.05 78.5,131.6 90.04,210.07l55.4 -78.47 -23.08 -343.97c-16.16,9.23 -36.93,13.85 -62.32,13.85 -55.4,0 -122.36,-13.85 -210.07,-41.58 -83.12,-27.69 -152.36,-60.01 -203.17,-96.94 -48.47,-34.62 -87.71,-78.5 -122.36,-133.9l-184.68 981.15 0.01 0zm731.81 -87.73c-9.23,23.08 -20.77,43.85 -34.62,60.01 -34.62,41.57 -78.5,66.96 -129.28,73.89l163.9 13.84 0 -147.74z"
   id="path83" />
 <path
   class="fil7"
   d="M-653.72 -1034.57c34.65,16.15 69.27,36.93 101.59,60.04 53.08,39.24 106.2,87.7 156.98,147.75l-16.16 -230.87 -242.41 23.08 0 0z"
   id="path85" />
 <path
   class="fil8"
   d="M-448.24 -623.64c2.31,18.46 4.62,39.23 6.92,60.01l2.31 4.61 25.39 348.62c27.7,6.92 48.47,16.15 64.63,25.39 0,0 0,0 2.31,0l-23.08 -334.74c-11.54,-20.8 -25.39,-41.57 -41.55,-64.65 -13.85,-11.54 -25.39,-25.39 -36.93,-39.24l0 0z"
   id="path87" />
 <path
   class="fil9"
   d="M239.69 359.78c0,6.93 0,13.85 2.31,20.81 2.31,11.54 2.31,18.46 2.31,25.39 0,80.78 -18.47,143.13 -55.4,182.37 -36.93,41.54 -94.66,64.62 -170.82,64.62 -78.51,0 -166.22,-20.77 -256.26,-60.01 -41.55,-18.46 -73.86,-34.62 -96.97,-53.08l0 249.3 671.8 -41.55 -99.28 -1216.6c-25.39,-83.12 -41.54,-175.45 -43.85,-272.42 -6.93,-2.3 -11.54,-6.92 -18.47,-9.23 -4.61,-2.31 -11.54,-4.61 -16.15,-9.23l80.78 1119.63zm-651 434.02l16.16 0 -16.16 -2.31 0 2.31z"
   id="path89" />
 <path
   class="fil10"
   d="M-309.72 380.59c4.61,0 9.23,2.31 16.15,4.61l-2.31 -25.42 -13.84 20.81z"
   id="path91" />
 <path
   class="fil11"
   d="M253.54 -986.1c41.58,-48.47 103.89,-73.86 180.09,-73.86 85.4,0 173.14,32.31 267.77,99.28 25.42,18.46 46.19,43.85 83.12,210.06 9.23,41.55 18.47,106.21 27.7,200.84l0 4.61 25.39 350.92c27.69,6.93 48.5,16.16 64.66,25.39 34.62,23.08 41.54,50.78 41.54,71.55 -2.31,30.04 -11.54,50.81 -27.7,62.35 -13.84,11.54 -34.62,18.47 -62.34,18.47 -55.4,0 -122.33,-13.85 -210.07,-41.55 -85.43,-27.73 -154.67,-60.04 -205.45,-96.97 -50.81,-34.62 -92.35,-80.78 -126.98,-140.82l27.7 334.73 11.54 143.13c9.23,-20.77 18.47,-36.93 30.01,-53.08 39.23,-48.47 96.97,-73.89 168.52,-73.89 94.66,0 175.44,43.88 242.41,126.97 64.62,80.82 96.94,180.06 96.94,290.88 0,23.08 -2.31,46.16 -6.93,69.28l94.66 23.08 53.09 -330.12 -265.46 -1283.57 -517.13 -20.77 6.92 83.09z"
   id="path93" />
</symbol>
 <g
   id="Warstwa_x0020_1"
   inkscape:label="Warstwa 1">
  <metadata
   id="CorelCorpID_0Corel-Layer" />
  <g
   id="_3154179804464">
   <path
   class="fil12"
   d="M1756.9 352.77l-11 -17.91c-92.99,-151.27 -261.01,-242.41 -438.16,-231.41 -22.79,1.38 -45.54,4.57 -67.89,9.22 -161.08,34.07 -301.23,154.49 -359.3,308.36 -34.23,90.67 -43.73,194.97 -108.58,266.89 -84.39,93.6 -227.69,96.51 -353.65,92.73 -125.95,-3.84 -269.35,-0.56 -353.3,93.36 -52.66,58.88 -69.32,142.55 -65.07,221.47 6.84,127.36 -9.35,247.75 170.4,280.13 149.68,27.01 117.39,174.44 225.03,230.16 187.25,92.7 357.99,78.7 563.12,37.92 287.07,-57.14 560.15,-214.07 724.2,-456.51 164.09,-242.38 205.47,-572.77 74.2,-834.41l0 0 0 0z"
   id="path97" />
   <path
   class="fil13"
   d="M580.66 602.9l-17.88 43.07c4.13,9.79 7.28,20.01 9.32,30.41 0.87,9.94 -7.22,52.23 -7.22,52.23 -0.19,0 -0.38,0.03 -0.57,0.03 -4.9,0 -9.19,-3.34 -10.37,-8.09 0,-0.35 0,-0.69 0,-1.03 0,-7.94 0.56,-15.91 1.65,-23.76l-0.03 0c-2,-2.59 -5.09,-4.12 -8.4,-4.12 -4.04,0 -7.72,2.31 -9.54,5.93 -5.12,10.29 -11,22.44 -12.03,23.82 -1.03,1.41 0.72,17.1 2.38,28.66 0.06,0.38 0.09,0.78 0.09,1.19 0,3.9 -3.16,7.09 -7.1,7.09 -2.15,0 -4.22,-1 -5.56,-2.65 -0.44,-0.54 -0.72,-1.13 -0.78,-1.82 -0.06,-0.65 -6.72,9.88 -13.38,-8.28 0,0 -13.41,-6.78 -13.72,-17.91 0,0 -12.19,-13.72 -13.84,-21.88 -1.63,-8.22 26.31,-57.69 26.31,-57.69l34.41 -71.08 46.26 25.88 0 0 0 0z"
   id="path99" />
   <path
   class="fil14"
   d="M520.74 691.45c-2.4,2.25 -4.47,4.88 -6.06,7.78 -4.62,6.63 -7.66,14.22 -8.81,22.22 -0.03,0.94 -0.07,1.85 -0.07,2.79 0,7.15 1.63,14.28 4.79,20.72 1.06,3.09 2.65,6.03 4.65,8.62 -0.68,-3.15 -1.72,-6.28 -3.03,-9.31 -2.56,-6.31 -3.87,-13.1 -3.87,-19.94 0,-0.84 0,-1.72 0.09,-2.63 1.16,-7.59 3.81,-14.97 7.78,-21.56 1.82,-2.72 3.35,-5.66 4.53,-8.69l0 0 0 0 0 0z"
   id="path101" />
   <path
   class="fil14"
   d="M507.12 688.39c-0.25,0 -2.94,2.12 -5.94,6.87 -1.72,2.75 -3.28,5.66 -4.63,8.63 -1.78,3.72 -2.81,7.81 -2.97,11.91 0.16,4.03 0.85,8.03 1.94,11.91 0.88,3.25 1.69,6.37 2.47,9.37 0.62,2.88 1.59,5.66 3,8.29 0,-3.01 -0.41,-6.01 -1.19,-8.91 -0.47,-2.66 -1.12,-5.94 -1.9,-9.47 -0.97,-3.75 -1.57,-7.57 -1.79,-11.44 0.26,-3.78 1.16,-7.5 2.66,-10.97 1.31,-3.28 2.78,-6.22 4,-8.63 2.47,-4.63 4.57,-7.25 4.35,-7.56l0 0z"
   id="path103" />
   <path
   class="fil14"
   d="M491.08 686.23c-0.93,-0.47 -5.15,8.69 -9.37,20 -0.38,1.1 -0.6,2.25 -0.6,3.44 0,0.56 0.03,1.13 0.13,1.72 0,1.47 0.43,2.84 0.69,4.19 0.49,2.34 1.21,4.65 2.12,6.87 1.53,3.75 3.22,5.78 3.47,5.57 -0.38,-2.13 -1,-4.19 -1.78,-6.19 -0.63,-2.19 -1.13,-4.44 -1.5,-6.69 0,-1.25 -0.41,-2.6 -0.5,-3.97 -0.06,-0.38 -0.06,-0.75 -0.06,-1.16 0,-0.9 0.12,-1.78 0.4,-2.62 2.25,-5.75 3.97,-10.88 5.19,-14.72 0.84,-2.04 1.47,-4.22 1.84,-6.44l0 0 -0.03 0 0 0z"
   id="path105" />
   <path
   class="fil13"
   d="M1303.58 497.57l17.94 -18.31c1.22,-1.5 2.88,-2.66 4.75,-3.16 3.41,-0.56 6.35,2.88 6.47,6.28 -0.12,3.44 -1.37,6.76 -3.53,9.48 -2.12,2.62 -3.66,5.71 -4.5,9.06l-21.13 -3.35 0 0zm0 0l0 0 0 0z"
   id="path107" />
   <path
   class="fil15"
   d="M1478.08 344.33l-94.89 164.81 -177.53 1.28 0 0c0,-0.28 0,-0.53 0,-0.81 0,-8.16 6.25,-15.03 14.41,-15.78l155.36 -3.13 80.67 -138.4c5.66,-9.72 11.44,-11.78 21.97,-7.84l0 -0.13 0 0 0.01 0z"
   id="path109" />
   <path
   class="fil13"
   d="M1318.86 509.45c0.85,0 -56.1,0 -52.91,0.88 0.31,0.59 0.56,1.25 0.81,1.84l7.44 32.54c12.82,0 49.76,-9.72 49.76,-9.72 6.53,-3.85 12.53,-8.5 17.85,-13.91l0 -11.75 -22.94 0.12 0 0 -0.01 0z"
   id="path111" />
   <path
   class="fil16"
   d="M1268.64 509.58l-135.02 -5.6 -62.45 -147.18 -66.32 95.02 53.41 96.04c12.07,21.69 34.98,35.13 59.79,35.13 1,0 2.03,-0.03 3.03,-0.06l157.37 -18.03 -9.81 -55.32 0 0 0 0z"
   id="path113" />
   <path
   class="fil16"
   d="M1289.33 1196.99l10.31 95.05c0,0 99.08,14.69 102.58,31.88l-182.4 33.63 -22.29 -147.4 91.8 -13.16 0 0z"
   id="path115" />
   <path
   class="fil17"
   d="M1241.88 1292.41c-2.68,1.25 -4.4,3.91 -4.4,6.85 0,0.81 0.15,1.62 0.4,2.4 1.16,2.72 3.82,4.44 6.75,4.44 0.85,0 1.66,-0.12 2.47,-0.4 2.82,-1.35 4.6,-4.19 4.6,-7.25 0,-0.91 -0.16,-1.82 -0.47,-2.63 -1.31,-2.44 -3.88,-3.94 -6.63,-3.94 -1.15,0 -2.37,0.28 -3.4,0.81m0.68 -0.28l0 0 0 0z"
   id="path117" />
   <path
   class="fil18"
   d="M1220.01 1357.55l-2.29 -14.82 177.25 -26.37c4.16,1.25 7.41,4.53 8.59,8.72l-183.55 32.47z"
   id="path119" />
   <path
   class="fil15"
   d="M1302.64 1290.73c0,0.84 -4.31,1.93 -8.34,5.44 -4.03,3.5 -5.78,7.62 -6.66,7.4 -0.87,-0.22 -0.28,-5.59 4.6,-9.78 4.87,-4.19 10.43,-3.97 10.4,-3.06l0 0 0 0z"
   id="path121" />
   <path
   class="fil15"
   d="M1323.02 1295.85c0.31,0.81 -3.34,2.94 -5.81,7.16 -2.47,4.22 -2.78,8.34 -3.72,8.47 -0.94,0.09 -2.16,-4.91 1.03,-10.31 3.22,-5.41 8.34,-6.16 8.5,-5.32l0 0z"
   id="path123" />
   <path
   class="fil15"
   d="M1337.37 1317.26c-0.88,0.35 -2.75,-3.97 -1.16,-9.19 1.59,-5.28 5.5,-7.84 5.97,-7.12 0.47,0.72 -1.72,3.65 -2.94,8 -1.22,4.31 -1.03,8.06 -1.87,8.31l0 0 0 0z"
   id="path125" />
   <path
   class="fil15"
   d="M1297.83 1269.29c-0.25,0.87 -4.53,0 -9.56,1.34 -5.07,1.31 -8.72,3.22 -9.32,2.56 -0.62,-0.68 2.78,-4.47 8.69,-5.69 5.94,-1.15 10.5,1.01 10.19,1.79l0 0 0 0z"
   id="path127" />
   <polygon
   class="fil19"
   points="1291.42,1215.87 1293.27,1232.78 1203,1245.13 1200.19,1227.34 "
   id="polygon129" />
   <path
   class="fil15"
   d="M1295.39 1250.06c-2.19,0.94 -4.56,1.44 -6.94,1.44 -0.75,0 -1.5,-0.06 -2.25,-0.16 -3.5,-0.09 -6.94,-0.62 -10.28,-1.53 -1.97,-0.53 -3.88,-1.25 -5.69,-2.06 -1.12,-0.4 -2.15,-1.03 -3.06,-1.78 -0.97,-0.72 -1.5,-1.84 -1.5,-3.03 0,-0.56 0.12,-1.13 0.37,-1.63 0.72,-1.37 2.07,-2.37 3.63,-2.62 0.56,-0.1 1.19,-0.13 1.75,-0.13 0.6,0 1.16,0.03 1.75,0.13 2.03,0.22 4.07,0.59 6.03,1.12 3.28,0.97 6.41,2.41 9.29,4.35 4.81,3.31 6.75,6.47 6.47,6.69 -0.32,0.22 -2.82,-2.16 -7.6,-4.79 -2.84,-1.53 -5.81,-2.65 -8.94,-3.4 -1.81,-0.44 -3.65,-0.75 -5.5,-0.88 -2,0 -3.66,0 -4.03,0.91 -0.34,0.94 0,0.53 0.38,1.03 0.65,0.56 1.43,1 2.25,1.31 1.65,0.78 3.4,1.5 5.18,2.06 3.03,0.97 6.19,1.69 9.35,2.13 3.09,0 6.25,0.31 9.34,0.84l0 0 0 0 0 0z"
   id="path131" />
   <path
   class="fil15"
   d="M1294.39 1251.63c-0.31,0 -2.5,-2.82 -3.72,-8.57 -0.28,-1.72 -0.43,-3.4 -0.43,-5.16 0,-1.71 0.15,-3.47 0.43,-5.15 0.28,-2 0.81,-4 1.5,-5.94 0.66,-2.56 2.63,-4.63 5.16,-5.44 0.19,-0.03 0.38,-0.03 0.53,-0.03 1.5,0 2.91,0.78 3.69,2.06 0.62,0.97 1.13,2.03 1.44,3.19 0.59,1.94 0.9,3.91 0.9,5.94 0,0.09 0,0.22 0,0.28 -0.03,3.5 -0.9,6.94 -2.56,10.03 -2.88,5.16 -6.47,6.91 -6.6,6.63 1.69,-2.47 3.26,-5 4.6,-7.6 1.09,-2.59 1.69,-5.37 1.69,-8.19 0,-0.28 -0.03,-0.59 -0.03,-0.87 -0.07,-1.72 -0.41,-3.47 -0.94,-5.13 -0.56,-1.9 -1.53,-3.4 -2.25,-3.12 -0.75,0.31 -2.22,1.81 -2.81,3.5 -0.63,1.69 -1.16,3.41 -1.51,5.19 -0.4,2 -0.56,4.06 -0.56,6.12 0,1.1 0.03,2.19 0.13,3.28 0.34,5.57 1.81,8.76 1.34,8.97l0 0 0 0.01z"
   id="path133" />
   <path
   class="fil16"
   d="M530.15 1250.06l-88.76 35.48c0,0 12.63,99.26 -3.13,107.39l-81.48 -166.71 136.02 -60.98 37.35 84.82 0 0z"
   id="path135" />
   <path
   class="fil18"
   d="M425.57 1229.84c-1.43,-1.75 -3.56,-2.72 -5.84,-2.72 -1.6,0 -3.16,0.47 -4.44,1.41 -1.72,1.37 -2.75,3.47 -2.75,5.66 0,1.56 0.5,3.06 1.38,4.28 1.53,1.78 3.78,2.78 6.06,2.78 1.62,0 3.22,-0.5 4.56,-1.44 1.28,-1.4 2.03,-3.25 2.03,-5.15 0,-1.91 -0.75,-3.72 -2.03,-5.13m1.03 0.31l0 0 0 0z"
   id="path137" />
   <path
   class="fil18"
   d="M356.78 1226.22l13.69 -6.13 73.08 163.87c-0.22,4.25 -2.54,8.06 -6.1,10.31l-80.67 -168.05 0 0z"
   id="path139" />
   <path
   class="fil15"
   d="M443.51 1287.91c-0.9,0.35 -3.06,-3.65 -7.53,-6.5 -4.5,-2.9 -8.91,-3.53 -8.91,-4.47 0,-0.94 5.13,-1.78 10.66,1.82 5.53,3.59 6.6,9.03 5.78,9.15z"
   id="path141" />
   <path
   class="fil15"
   d="M444.05 1308.98c-0.76,0.53 -3.82,-2.41 -8.51,-3.72 -4.75,-1.28 -8.81,-0.38 -9.15,-1.28 -0.29,-0.88 4.15,-3.38 10,-1.75 5.87,1.65 8.37,6.4 7.66,6.75l0 0z"
   id="path143" />
   <path
   class="fil15"
   d="M427.17 1328.51c-0.53,-0.68 3.09,-3.65 8.62,-3.56 5.47,0.13 8.94,3.19 8.41,3.88 -0.5,0.65 -4,-0.69 -8.5,-0.72 -4.44,-0.07 -8.1,1.15 -8.53,0.4z"
   id="path145" />
   <path
   class="fil15"
   d="M462.8 1277.57c-0.91,0 -1.41,-4.28 -3.78,-8.85 -2.38,-4.59 -5.54,-7.53 -5.16,-8.25 0.34,-0.75 5.16,1.44 7.78,6.78 2.63,5.38 2,10.47 1.16,10.32l0 0 0 0z"
   id="path147" />
   <polygon
   class="fil19"
   points="512.56,1257.06 496.77,1263.41 460.64,1179.74 474.67,1173.4 "
   id="polygon149" />
   <path
   class="fil15"
   d="M480.36 1270.1c-1.93,-2.47 -3.22,-5.38 -3.68,-8.5 -0.79,-3.32 -1.19,-6.72 -1.19,-10.16 0,-0.03 0,-0.1 0,-0.16 0,-2 0.15,-4.03 0.4,-6 0.13,-1.22 0.41,-2.37 0.91,-3.44 0.6,-1.5 2,-2.43 3.6,-2.43 0.18,0 0.4,0.03 0.62,0.06 1.5,0.34 2.81,1.37 3.5,2.84 0.5,1 0.84,2.16 0.94,3.32 0.37,2.03 0.53,4.03 0.53,6.09 0,0 0,0 0,0 0,3.47 -0.56,6.97 -1.66,10.31 -0.72,3.07 -2.34,5.88 -4.68,8.01 -0.44,-0.26 1.28,-3.29 2.53,-8.66 0.62,-2.72 0.93,-5.53 0.93,-8.35 0,-0.4 0,-0.75 -0.03,-1.12 -0.03,-1.85 -0.25,-3.69 -0.62,-5.5 -0.31,-2.04 -1,-3.54 -1.97,-3.66 -0.97,-0.09 -0.5,0 -0.88,0.56 -0.34,0.84 -0.53,1.72 -0.62,2.56 -0.31,1.88 -0.53,3.76 -0.63,5.63 0,0.69 -0.06,1.44 -0.06,2.13 0,2.5 0.22,5 0.6,7.43 0.68,2.97 1.18,6.01 1.47,9.04l0 0 0 0 -0.01 0z"
   id="path151" />
   <path
   class="fil15"
   d="M478.96 1269.54c-0.28,0 1.93,-3.19 7.18,-5.88 3.07,-1.53 6.41,-2.53 9.85,-2.94 1,-0.09 2,-0.19 3.03,-0.19 1,0 2.03,0.1 3.06,0.19 0.07,0 0.13,0 0.19,0 2.63,0 5.03,1.31 6.5,3.5 0.22,0.53 0.32,1.1 0.32,1.66 0,1.09 -0.38,2.12 -1.1,2.91 -0.81,0.9 -1.75,1.68 -2.72,2.28 -1.78,1.12 -3.72,1.97 -5.75,2.53 -1.84,0.5 -3.75,0.78 -5.66,0.78 -1.56,0 -3.12,-0.16 -4.59,-0.53 -5.91,-1.38 -8.44,-4.38 -8.16,-4.57 2.75,0.94 5.63,1.75 8.5,2.38 0.91,0.09 1.85,0.19 2.79,0.19 2.18,0 4.34,-0.38 6.4,-1.03 1.72,-0.54 3.35,-1.32 4.88,-2.32 1.63,-1.09 2.81,-2.37 2.28,-3 -0.94,-1.09 -2.37,-1.75 -3.84,-1.75 -0.07,0 -0.16,0 -0.22,0 -0.91,-0.06 -1.85,-0.12 -2.75,-0.12 -0.97,0 -1.88,0.06 -2.81,0.12 -3.13,0.28 -6.22,1 -9.16,2.13 -5.22,1.81 -7.94,4.09 -8.22,3.65l0 0 0 0.01z"
   id="path153" />
   <path
   class="fil15"
   d="M1137.06 40.63c-13.91,-8.59 -33.26,0.81 -47.98,-6.34 -8.97,-4.32 -14.06,-13.72 -21.28,-20.6 -9.26,-8.78 -21.57,-13.69 -34.32,-13.69 -2.82,0 -5.66,0.25 -8.38,0.72 -14.25,3.03 -24.56,8.19 -30.1,21.75 -9.9,-9.81 -33.25,0 -43.6,12.16 -10.37,12.22 -12.65,27.57 -12.65,43.76 0,0.84 -0.07,1.75 -0.07,2.65 0,27.01 5.16,53.86 15.07,78.98 0.94,2.29 2.62,5.13 5.19,4.57 2.5,-0.56 2.62,-2.06 3.31,-3.63 5.13,-13.56 8.66,-27.81 10.31,-42.28 1.69,-14.48 6.35,-28.54 13.6,-41.2 7.97,-12.19 21.6,-21.63 36.03,-20.56 10.79,1.28 20.76,6.34 28.2,14.25 7.71,7.47 13.87,16.37 21,24.44 6.72,8.41 15.63,14.91 25.75,18.6 3,1.06 6.16,1.59 9.35,1.59 7.66,0 14.97,-3.1 20.25,-8.6 6.91,-8.22 5.5,-22.91 -4.13,-27.72 1.13,0.19 2.26,0.28 3.44,0.28 11.63,0 21.1,-9.47 21.1,-21.13 0,-7.31 -3.78,-14.09 -10,-17.97l-0.1 -0.03 0 0 0.01 0z"
   id="path155" />
   <path
   class="fil13"
   d="M1026.29 271.85l6.44 -30.41c0,0 41.6,2.81 51.13,-37.25 4.63,-19.35 10.91,-60.01 16.19,-96.83 0.5,-3.56 0.75,-7.16 0.75,-10.78 0,-35.92 -24.88,-67.04 -59.92,-74.95l-3.84 -0.88c-42.38,-7 -72.1,25.1 -77.79,67.61l-32.66 163.02c-0.69,3.25 -1,6.63 -1,9.94 0,24.16 16.97,44.98 40.59,49.85l-1.15 15.44c27.56,5.63 55.54,-27.28 61.23,-54.76l0.03 0 0 0z"
   id="path157" />
   <path
   class="fil14"
   d="M1032.85 241.44c-18.63,-3.84 -35.72,-13.16 -49.01,-26.75 -13.31,-13.57 5.82,31.72 46.76,37.16l2.25 -10.41z"
   id="path159" />
   <path
   class="fil15"
   d="M1085.3 135.96c-0.6,2.69 -3,4.62 -5.78,4.62 -0.38,0 -0.72,0 -1.07,-0.09 -2.78,-0.41 -4.81,-2.78 -4.81,-5.59 0,-0.32 0.03,-0.63 0.06,-0.94 0.63,-2.69 3,-4.66 5.81,-4.66 0.35,0 0.69,0.03 1.07,0.13 2.75,0.4 4.81,2.78 4.81,5.59 0,0.31 -0.03,0.63 -0.09,0.94l0 0 0 0z"
   id="path161" />
   <path
   class="fil15"
   d="M1087.05 125.05c-0.88,0.63 -4.53,-3.59 -10.69,-5.16 -6.22,-1.56 -11.41,0.66 -11.91,0 -0.53,-0.68 0.78,-1.59 3.09,-2.59 1.94,-0.78 4,-1.16 6.1,-1.16 1.22,0 2.44,0.13 3.62,0.41 3.25,0.75 6.16,2.56 8.28,5.16 1.6,1.59 1.94,3.06 1.51,3.34l0 0 0 0z"
   id="path163" />
   <path
   class="fil15"
   d="M1025.66 123.55c-0.56,2.72 -2.93,4.63 -5.68,4.63 -0.41,0 -0.75,-0.03 -1.1,-0.1 -2.81,-0.4 -4.91,-2.81 -4.91,-5.59 0,-0.31 0.04,-0.63 0.1,-0.91 0.59,-2.72 3,-4.65 5.78,-4.65 0.44,0 0.88,0.03 1.28,0.12 2.66,0.5 4.63,2.85 4.63,5.56 0,0.32 -0.03,0.63 -0.1,0.94l0 0 0 0z"
   id="path165" />
   <path
   class="fil15"
   d="M1026.29 112.52c-0.91,0.56 -4.56,-3.6 -10.72,-5.13 -6.19,-1.56 -11.38,0.66 -11.88,0 -0.53,-0.69 0.72,-1.59 3.06,-2.66 1.91,-0.75 3.97,-1.12 6.04,-1.12 1.25,0 2.47,0.12 3.72,0.41 3.25,0.78 6.15,2.59 8.28,5.15 1.5,1.63 1.5,3.1 1.5,3.35l0 0z"
   id="path167" />
   <path
   class="fil15"
   d="M1038.13 163.4c1.07,-0.06 2.19,-0.13 3.26,-0.13 2.37,0 4.71,0.22 7.03,0.6 1.65,0 3.22,0 3.72,-0.78 0.28,-0.81 0.4,-1.69 0.4,-2.57 0,-0.87 -0.12,-1.75 -0.4,-2.56 -0.63,-4.16 -1.28,-8.5 -1.97,-13.03 -2,-11.16 -3.13,-22.51 -3.38,-33.79 2.94,10.91 5.03,22.16 6.13,33.38 0.56,4.53 1.19,8.94 1.69,13.13 0.21,0.78 0.31,1.59 0.31,2.41 0,1.37 -0.31,2.72 -0.88,3.97 -0.72,1 -1.84,1.65 -3.09,1.68 -0.44,0.07 -0.91,0.1 -1.41,0.1 -0.47,0 -0.9,-0.03 -1.37,-0.1 -3.44,-0.31 -6.82,-1.12 -10.03,-2.31l-0.01 0z"
   id="path169" />
   <path
   class="fil15"
   d="M1019.01 163.4c1.03,0 -0.54,6.84 4.18,12.94 4.69,6.09 11.94,6.91 11.79,7.88 -0.13,0.96 -1.88,0.9 -4.88,0.31 -3.97,-0.81 -7.47,-3.03 -9.94,-6.16 -2.06,-2.62 -3.19,-5.91 -3.19,-9.22 0,-0.53 0.03,-1.06 0.1,-1.56 0.34,-2.69 1.5,-4.19 1.93,-4.19l0.01 0z"
   id="path171" />
   <path
   class="fil15"
   d="M1033.85 81.01c-1.03,1.57 -7,-0.69 -14.41,-1.4 -7.43,-0.69 -13.78,0 -14.37,-1.82 -0.32,-0.87 1.06,-2.22 3.81,-3.28 2.69,-0.94 5.56,-1.44 8.44,-1.44 4.78,0 9.44,1.35 13.5,3.94 2.44,1.63 3.47,3.28 3.03,4z"
   id="path173" />
   <path
   class="fil15"
   d="M1088.83 106.73c-1.44,1.22 -5.19,-1.21 -10.31,-2.46 -5.19,-1.25 -9.73,-1.16 -10.32,-2.88 -0.25,-0.81 0.72,-2.03 2.94,-2.94 1.62,-0.56 3.38,-0.87 5.09,-0.87 4.44,0 8.66,1.9 11.6,5.22 1.34,1.75 1.59,3.28 1,3.94l0 0 0 -0.01z"
   id="path175" />
   <path
   class="fil13"
   d="M955.94 118.86c-0.66,-0.44 -25.79,-14.38 -30.91,13.29 -5.13,27.66 23.56,27.34 23.72,26.53 0.22,-0.84 7.19,-39.82 7.19,-39.82z"
   id="path177" />
   <path
   class="fil14"
   d="M942.12 146.55c0,0 -0.56,0 -1.44,0.47 -0.31,0.1 -0.72,0.13 -1.03,0.13 -0.9,0 -1.81,-0.28 -2.59,-0.75 -2.41,-2.28 -3.78,-5.47 -3.78,-8.82 0,-0.96 0.09,-1.97 0.34,-2.93 0.38,-2.38 1.28,-4.63 2.66,-6.63 0.9,-1.66 2.5,-2.81 4.37,-3.03 0.07,0 0.13,0 0.22,0 1.13,0 2.13,0.78 2.31,1.91 0,0.81 0,1.31 0,1.4 0,0.13 0.69,-0.34 0.69,-1.5 0,-0.72 -0.28,-1.44 -0.75,-1.97 -0.66,-0.72 -1.56,-1.18 -2.56,-1.22 -2.41,0 -4.6,1.29 -5.88,3.32 -1.62,2.15 -2.69,4.72 -3.09,7.37 -0.25,1 -0.41,2.07 -0.41,3.1 0,4.03 1.91,7.81 5.16,10.25 0.69,0.34 1.44,0.53 2.25,0.53 0.78,0 1.56,-0.19 2.28,-0.53 1.13,-0.41 1.38,-1.03 1.25,-1.1l0 0z"
   id="path179" />
   <path
   class="fil15"
   d="M1110.52 100.83c-0.56,0 -1.16,0.03 -1.72,0.03 -18.5,0 -35.94,-8.6 -47.26,-23.26 -7.84,-10.31 -12.72,-24.09 -24.16,-30.88 -4.78,-2.53 -10.09,-3.87 -15.5,-3.87 -3.47,0 -6.9,0.56 -10.22,1.62 -8.44,2.79 -16.22,7.25 -22.88,13.16 3.13,22.13 -7.18,43.76 -17.28,63.82 -0.91,2.32 -2.53,4.29 -4.66,5.6 -3.81,1.75 -8.25,-1.28 -10.31,-4.91 -2.34,-4.81 -3.63,-10.12 -3.63,-15.5 0,-1.37 0.1,-2.75 0.26,-4.09 0.4,-15.35 3.9,-30.54 10.31,-44.54 6.47,-13.85 16.85,-25.57 29.85,-33.63 11.4,-6.57 24.28,-10.03 37.41,-10.03 6.09,0 12.19,0.78 18.09,2.25 18.7,4.81 35.42,15.37 47.76,30.25 6,6.63 10.28,14.63 12.47,23.29l1.47 30.69 0 0 0 0zm0 0l0 0 0 0z"
   id="path181" />
   <path
   class="fil20"
   d="M1146.43 52.91c-0.09,0.82 -0.37,1.63 -0.78,2.35 -1.16,2.09 -2.97,3.78 -5.12,4.78 -2.29,1.03 -4.76,1.56 -7.22,1.56 -1.29,0 -2.57,-0.15 -3.85,-0.43 -2.28,-0.38 -4.56,-1.07 -6.72,-1.94 -2.47,-1.03 -4.62,-2.72 -6.22,-4.85 -1.31,-1.75 -2.03,-3.84 -2.03,-6.03 0,-0.84 0.09,-1.69 0.31,-2.53 1.19,-3.12 4.03,-5.38 7.41,-5.66 0.56,-0.06 1.09,-0.12 1.63,-0.12 1.22,0 2.4,0.19 3.56,0.59 1.66,0.63 3.12,1.72 4.19,3.19 1.5,2.13 2.28,4.66 2.28,7.25 0,1.03 -0.13,2.06 -0.35,3.06 -0.9,3.79 -3.31,7.07 -6.59,9.1 -3.41,2.12 -7.28,3.28 -11.22,3.41 -0.1,0 -0.13,0 -0.19,0 -8.25,0 -16.25,-2.75 -22.78,-7.85 -6.44,-4.91 -12.35,-10.59 -17.57,-16.81 -4.72,-5.75 -10.03,-11.1 -15.72,-15.94 -5.13,-4.25 -11.22,-7.22 -17.69,-8.63 -2.53,-0.47 -5.03,-0.72 -7.6,-0.72 -3.31,0 -6.62,0.44 -9.84,1.25 -8.25,2.19 -15.85,6.5 -21.97,12.44 -1.72,1.59 -3.32,3.34 -4.78,5.16 -1.04,1.15 -1.6,1.84 -1.6,1.81 0,-0.09 0,0 0.28,-0.53 0.32,-0.5 0.69,-1.03 1.1,-1.5 1.43,-1.82 3,-3.54 4.62,-5.13 6.07,-6.25 13.72,-10.75 22.1,-13.03 3.41,-0.91 6.91,-1.35 10.41,-1.35 2.53,0 5,0.19 7.44,0.66 6.78,1.47 13.12,4.53 18.47,8.97 5.72,4.88 11.06,10.22 15.97,16 5.12,6.19 10.94,11.76 17.35,16.66 6.25,4.75 13.93,7.41 21.87,7.47 3.72,-0.12 7.38,-1.25 10.57,-3.19 3.03,-1.84 5.19,-4.81 6.06,-8.25 0.28,-0.97 0.38,-1.97 0.38,-3 0,-2.31 -0.72,-4.59 -2,-6.53 -1.66,-2.12 -4.16,-3.38 -6.85,-3.38 -0.47,0 -0.94,0.04 -1.34,0.1 -2.94,0.25 -5.5,2.15 -6.56,4.9 -0.16,0.75 -0.29,1.54 -0.29,2.32 0,1.9 0.6,3.78 1.75,5.34 1.47,2 3.51,3.6 5.79,4.57 2.09,0.9 4.31,1.59 6.56,2 1.31,0.28 2.66,0.46 4,0.46 2.28,0 4.53,-0.43 6.66,-1.28 2.12,-0.94 3.94,-2.5 5.12,-4.5 0.79,-1.37 0.91,-2.25 1.01,-2.22l0 0 -0.01 0z"
   id="path183" />
   <path
   class="fil20"
   d="M941.15 57.2c2.5,1.59 5.16,3.03 7.91,4.15 2.41,0.75 4.94,1.13 7.44,1.13 0.69,0 1.31,0 2,-0.06 3.94,-0.32 7.78,-1.22 11.44,-2.63 6.62,-2.69 12.22,-7.47 15.91,-13.59 1.4,-2.63 2.68,-5.32 3.75,-8.07 0,0.81 -0.13,1.63 -0.41,2.41 -0.56,2.16 -1.41,4.25 -2.47,6.15 -3.56,6.54 -9.34,11.66 -16.31,14.38 -3.75,1.5 -7.82,2.41 -11.85,2.63 -0.47,0.03 -0.91,0.03 -1.37,0.03 -2.88,0 -5.79,-0.5 -8.47,-1.47 -2.1,-0.84 -4.01,-1.97 -5.79,-3.34 -1.22,-0.97 -1.84,-1.6 -1.78,-1.72l0 0z"
   id="path185" />
   <path
   class="fil20"
   d="M937.93 77.39c0,0 3.1,1.22 8.38,2.06 2.19,0.44 4.47,0.59 6.69,0.59 11.72,0 22.81,-5.34 30.1,-14.47 3.37,-4.15 4.72,-7.22 4.93,-7.12 0.19,0.09 0,0.81 -0.78,2.22 -0.97,1.93 -2.09,3.78 -3.37,5.5 -7,9.53 -18.16,15.16 -29.98,15.16 -2.62,0 -5.25,-0.29 -7.81,-0.85 -2.06,-0.4 -4.13,-1.03 -6.13,-1.87 -0.75,-0.29 -1.44,-0.69 -2.03,-1.22l0 0 0 0 0 0z"
   id="path187" />
   <path
   class="fil14"
   d="M999.6 134.15c-0.41,0 -0.78,-0.35 -0.78,-0.75 0,-0.44 0.37,-0.79 0.78,-0.79 0,0 0,0 0,0 0.4,0 0.68,0.32 0.68,0.66 0,0.03 0,0.06 0,0.13 0,0 0,0 0,0 0,0.37 -0.28,0.68 -0.68,0.75l0 0z"
   id="path189" />
   <path
   class="fil14"
   d="M1012.01 134.08c-0.35,0 -0.69,-0.37 -0.69,-0.84 0,0 0,0 0,-0.03 0,-0.44 0.34,-0.78 0.75,-0.84 0.4,0.06 0.69,0.37 0.69,0.81 0,0.03 0,0.06 0,0.09 0,0.47 -0.32,0.88 -0.75,0.81l0 0 0 0z"
   id="path191" />
   <path
   class="fil14"
   d="M1020.01 135.68c-0.38,0 -0.63,-0.54 -0.57,-1.16 0.03,-0.63 0.38,-1.09 0.82,-1.09 0.43,0 0.59,0.59 0.56,1.21 -0.06,0.69 -0.44,1.1 -0.81,1.04z"
   id="path193" />
   <path
   class="fil14"
   d="M1003.78 142.8c-0.43,0 -0.65,-0.34 -0.62,-0.59 0.06,-0.28 0.41,-0.38 0.78,0 0.34,0.34 0.66,0.34 0.6,0.56 -0.04,0.22 -0.41,0.03 -0.76,0.03l0 0 0 0z"
   id="path195" />
   <path
   class="fil14"
   d="M1015.16 142.8c-0.37,-0.06 -0.65,-0.4 -0.65,-0.75 0,-0.03 0,-0.06 0.03,-0.12 0,-0.47 0.4,-0.75 0.84,-0.72 0.31,0.09 0.56,0.37 0.56,0.75 0,0.03 0,0.09 0,0.12 0,0 0,0 0,0 0,0.41 -0.34,0.72 -0.75,0.72 0,0 0,0 -0.03,0l0 0 0 0z"
   id="path197" />
   <path
   class="fil14"
   d="M1072.98 148.77c-0.37,-0.03 -0.65,-0.34 -0.65,-0.69 0,-0.03 0,-0.09 0,-0.12 0,0 0,0 0,0 0,-0.41 0.31,-0.72 0.72,-0.75 0.37,0.03 0.65,0.37 0.65,0.72 0,0.03 0,0.06 0,0.06 0,0 0,0 0,0 0,0.41 -0.28,0.75 -0.72,0.78l0 0 0 0z"
   id="path199" />
   <path
   class="fil14"
   d="M1081.17 149.83c-0.34,-0.06 -0.56,-0.4 -0.56,-0.78 0,-0.06 0,-0.12 0,-0.15 0,-0.47 0.41,-0.85 0.78,-0.78 0.38,0.06 0.63,0.4 0.63,0.81 0,0.03 0,0.09 0,0.19 -0.04,0.4 -0.38,0.72 -0.85,0.72 0,0 0,0 0,0l0 0 0 -0.01z"
   id="path201" />
   <path
   class="fil14"
   d="M1065.83 147.4c-0.35,-0.03 -0.63,-0.32 -0.66,-0.66 0.03,-0.34 0.31,-0.56 0.66,-0.56 0,0 0.03,0 0.03,0 0.03,0 0.03,0 0.09,0 0.31,0 0.59,0.28 0.59,0.59 0,0 0,0 0,0 0,0.35 -0.31,0.63 -0.68,0.63 0,0 -0.03,0 -0.03,0l0 0z"
   id="path203" />
   <path
   class="fil14"
   d="M1070.01 156.74c-0.03,0 -0.06,0 -0.09,0 -0.41,0 -0.75,-0.28 -0.78,-0.65 0,-0.04 0,-0.07 0,-0.16 0,-0.34 0.19,-0.66 0.56,-0.78 0,0 0.03,0 0.06,0 0.38,0 0.72,0.28 0.75,0.69 0.04,0.06 0.04,0.12 0.04,0.18 0,0.35 -0.22,0.63 -0.54,0.72l0 0z"
   id="path205" />
   <path
   class="fil14"
   d="M1077.17 156.93c-0.25,-0.09 -0.44,-0.31 -0.44,-0.59 0,-0.1 0.03,-0.19 0.07,-0.25 0.15,-0.16 0.34,-0.26 0.53,-0.26 0.4,0 0.72,0.35 0.72,0.75 0,0.07 0,0.1 0,0.16 -0.13,0.19 -0.32,0.28 -0.53,0.28 -0.13,0 -0.25,-0.03 -0.35,-0.09l0 0 0 0z"
   id="path207" />
   <polygon
   class="fil15"
   points="777.69,798.25 700.77,1051.28 473.08,1165.24 522.18,1279.63 843.26,1159.46 943.47,851.47 "
   id="polygon209" />
   <path
   class="fil16"
   d="M807.47 248.23l-208.34 132.27c-10.16,6.43 -17.72,16.25 -21.41,27.69l-65.35 201.62 71.82 25.38 75.83 -188.53 187.59 -77.7 -40.14 -120.73 0 0z"
   id="path211" />
   <path
   class="fil16"
   d="M1031.45 310.14l5.93 -8.25 -10.87 -31.35 -29.41 44.66 -7.91 -24.38 -59.1 -70.38 -25.79 18.75 -96.95 9.03 0.56 2.69 -18.53 143.12 -11.28 153.74 -22.6 75.29 -9.53 10.29c-4.35,4.65 -6.76,10.81 -6.76,17.19 0,1.93 0.22,3.93 0.66,5.84l0.69 2.66 238.04 77.26 18.43 -28.79 74.01 -350.55 -39.6 -46.82 0 0 0.01 0z"
   id="path213" />
   <path
   class="fil15"
   d="M1266.39 900.29c-4.97,-46.69 -37.2,-86.07 -82.08,-100.11l-204.4 -64.35 -239.23 -76.82c-11.91,26.91 -18.13,56.13 -18.13,85.57 0,3.88 0.13,7.72 0.32,11.57 2.9,47.41 54.73,92.67 106.54,106.01l297.11 74.95 56.07 293.54 117.96 -9.43 -34.16 -320.93 0 0 0 0z"
   id="path215" />
   <path
   class="fil20"
   d="M1127.96 938.83c-1.31,-0.06 -2.63,-0.25 -3.88,-0.59l-10.87 -2.44c-9.41,-2.16 -23.01,-5.5 -39.7,-9.82 -33.5,-8.59 -79.38,-21.69 -130.7,-33.75 -43.67,-10.41 -87.05,-23.94 -129.12,-39.73 -16.15,-6.12 -29.06,-11.59 -37.91,-15.44 -4.41,-1.9 -7.81,-3.59 -10.28,-4.65 -1.22,-0.5 -2.34,-1.1 -3.44,-1.75 1.22,0.31 2.47,0.72 3.63,1.25l10.31 4.18c8.97,3.63 21.91,8.75 38.13,14.69 42.26,15.16 85.7,28.35 129.33,38.79 51.51,11.97 97.24,25.41 130.55,34.47l39.51 10.66 10.78 2.88c1.22,0.31 2.44,0.75 3.66,1.25l0 0z"
   id="path217" />
   <path
   class="fil20"
   d="M1156.97 903.64c-2.47,7.47 -6.66,14.28 -12.32,19.78 -4.91,6.19 -11.25,11.03 -18.47,14.22 -0.47,-0.68 8.09,-6.56 16.53,-15.97 8.44,-9.47 13.5,-18.38 14.25,-18.03l0.01 0z"
   id="path219" />
   <path
   class="fil20"
   d="M1174.59 930.77c-7.19,4.09 -15.25,6.65 -23.5,7.37 -3.78,0.72 -7.6,1.13 -11.41,1.13 -4.47,0 -8.94,-0.53 -13.28,-1.53 0,-0.85 11,-0.32 24.25,-2.22 13.25,-1.91 23.69,-5.78 23.94,-4.75z"
   id="path221" />
   <path
   class="fil20"
   d="M843.04 692.67c0,-0.66 72.11,21.28 160.09,49.1 87.95,27.78 159.62,50.88 159.21,51.48 -0.41,0.65 -72.1,-21.26 -160.05,-49.08 -87.95,-27.81 -159.46,-50.75 -159.25,-51.5l0 0 0 0z"
   id="path223" />
   <path
   class="fil15"
   d="M847.58 354.33c3.62,-5.18 6.47,-10.84 8.5,-16.78 2.06,-6.53 3.4,-13.25 3.94,-20.06 0.21,-2.47 0.31,-5 0.31,-7.51 0,-5.84 -0.6,-11.65 -1.85,-17.31 -1.96,-8.06 -5.65,-15.63 -10.81,-22.13 -4.25,-5.31 -9.38,-9.84 -15.19,-13.35 -5.59,-3 -11.41,-5.62 -17.35,-7.78 1.75,0.06 3.47,0.35 5.13,0.88 4.59,1.15 8.97,2.9 13.13,5.16 6.19,3.37 11.72,7.97 16.22,13.43 5.44,6.76 9.38,14.66 11.38,23.07 1.28,5.56 1.93,11.31 1.93,17.03 0,2.91 -0.18,5.88 -0.5,8.72 -0.65,7.07 -2.18,13.98 -4.65,20.57 -1.5,4.5 -3.78,8.72 -6.66,12.47 -1.94,2.56 -3.44,3.69 -3.53,3.6l0 -0.01z"
   id="path225" />
   <path
   class="fil21"
   d="M789.38 394.03c13.66,-3.53 41.85,-18.82 41.85,-18.82 -16.97,44.57 -35.23,97.86 -51.13,142.78 4.65,-41.51 4.65,-82.39 9.28,-123.96m0 0l0 0 0 0z"
   id="path227" />
   <path
   class="fil15"
   d="M632.86 421.5c6.15,2.6 11.65,6.56 15.97,11.63 4.97,4.47 8.78,10.03 11.19,16.25 -0.66,0.44 -5.63,-6.72 -13.1,-14.38 -7.47,-7.62 -14.53,-12.81 -14.06,-13.5l0 0z"
   id="path229" />
   <path
   class="fil15"
   d="M649.64 393.59c8.69,12.16 13.35,26.69 13.35,41.6 0,4.1 -0.38,8.25 -1.1,12.28 -0.56,-9.22 -1.69,-18.47 -3.28,-27.53 -2.44,-8.91 -5.5,-17.72 -8.94,-26.35l-0.03 0 0 0z"
   id="path231" />
   <path
   class="fil15"
   d="M753.84 516.45c0,0.75 0,1.38 -0.5,1.38 -0.53,0 -0.47,-0.63 -0.47,-1.38 0,-0.78 0,-1.34 0.47,-1.34 0.47,0 0.5,0.59 0.5,1.34z"
   id="path233" />
   <path
   class="fil15"
   d="M997.19 707.36c0,-1.07 0.16,-2.06 0.41,-3.1l1.75 -8.75c1.69,-7.94 3.94,-18.81 6.78,-32.1l22.28 -105.79c8.66,-41.23 16.51,-78.51 22.26,-105.89 2.9,-13.26 5.19,-24.13 6.97,-32.07l2 -8.69c0.25,-1 0.53,-2 0.87,-3 0,0.16 0,0.28 0,0.44 0,0.87 -0.09,1.78 -0.31,2.65 -0.38,2.35 -0.91,5.16 -1.53,8.82 -1.47,7.97 -3.6,18.91 -6.13,32.22 -5.16,27.16 -12.81,64.7 -21.53,106.05 -8.69,41.35 -16.85,78.67 -23.01,105.7 -3.15,13.44 -5.75,24.41 -7.65,31.91 -0.91,3.5 -1.63,6.38 -2.19,8.6 -0.22,1.03 -0.53,2.06 -1,3l0.03 0 0 0 0 0z"
   id="path235" />
   <path
   class="fil15"
   d="M1114.49 543.24c0,-0.53 -0.03,-1.06 -0.03,-1.6 0,-7.12 1.88,-14.18 5.47,-20.37 3.03,-7.04 8,-13.13 14.28,-17.57 0.66,0.63 -6.47,7.78 -11.88,18.78 -5.43,10.98 -7,20.88 -7.84,20.76l0 0 0 0z"
   id="path237" />
   <path
   class="fil15"
   d="M1126.55 555.74c-1.4,-5.5 -2.15,-11.19 -2.15,-16.91 0,-12.53 3.47,-24.82 10.03,-35.5 0.78,0.34 -4.5,11.25 -6.56,25.72 -0.85,8.66 -1.35,17.44 -1.35,26.16 0,0.15 0,0.37 0,0.53l0.03 0 0 0 0 0z"
   id="path239" />
   <polygon
   class="fil13"
   points="1375.44,509.01 1336.12,509.36 1340.99,521.83 1375.09,513.83 "
   id="polygon241" />
   <path
   class="fil21"
   d="M1039.2 513.17c0,0 26.16,45.7 25.75,44.54 1.78,-43.7 1.6,-85.36 -8.5,-127.86m-17.25 83.32l0 0 0 0z"
   id="path243" />
   <path
   class="fil15"
   d="M989.32 292.14c0,0.28 -3.57,3.47 -9.54,9.28 -6,5.85 -14.16,14.38 -24.91,23.22l-1.15 1 -0.72 -1.34 -11.85 -21.97c-9.66,-17.44 -18.75,-33.01 -25.41,-44.23l-7.94 -13.53c-1.06,-1.59 -1.9,-3.31 -2.53,-5.16 1.35,1.35 2.5,2.88 3.5,4.5 2.06,2.97 5.13,7.38 8.53,12.85 7.13,11.06 16.51,26.5 26.13,43.97 4.25,7.79 8.22,15.51 11.72,22.07l-1.9 -0.41c10.65,-8.53 19.06,-17 25.47,-22.41 3.19,-3 6.75,-5.65 10.59,-7.84l0 0 0.01 0z"
   id="path245" />
   <path
   class="fil15"
   d="M1036.13 304.33c-0.78,1.87 -1.93,3.66 -3.31,5.12 -2.25,3.25 -5.94,7.63 -9.69,12.94l-1.44 1.94 -0.72 -2.25c-1.5,-4.63 -3.03,-9.66 -4.75,-14.88l-3.03 -10.31 2.28 0.47c-5.53,7.31 -11.69,14.25 -18.31,20.6 4.78,-7.85 10.25,-15.32 16.22,-22.32l1.5 -1.88 0.78 2.35 3.13 9.94c1.56,5.25 3.06,10.19 4.5,14.84l-2.16 -0.31c4.13,-5.13 7.94,-9.41 10.56,-12.41 2.63,-3 4.19,-4.03 4.44,-3.84l0 0 0 0z"
   id="path247" />
   <path
   class="fil15"
   d="M997.19 317.45c-2.84,-3.81 -4.62,-8.31 -5.16,-13.03 -1.4,-4.41 -2.31,-9 -2.62,-13.59 2.84,3.78 4.59,8.25 5.12,12.97 1.41,4.43 2.28,9.03 2.66,13.62l0 0.03 0 0 0 0z"
   id="path249" />
   <path
   class="fil15"
   d="M957.06 682.26c0,0 2.88,1.66 5.16,6.34 1.37,2.94 2.09,6.19 2.09,9.41 0,10.66 -7.5,19.82 -17.97,21.85 -1.13,0.37 -2.34,0.59 -3.53,0.59 -1.56,0 -3.13,-0.34 -4.53,-0.93 0,-0.44 3.06,0 7.59,-1.44 9.47,-2.6 16.03,-11.19 16.03,-21.01 0,-2.65 -0.49,-5.28 -1.43,-7.72 -1.66,-4.5 -3.78,-6.78 -3.41,-7.09l0 0z"
   id="path251" />
   <path
   class="fil15"
   d="M1003.82 324.33c0.06,0.63 0.12,1.25 0.12,1.84 0,0.6 -0.06,1.25 -0.12,1.85 0,2.66 0,6.16 -0.35,10.31 -0.31,9.1 -1.09,22.26 -2.34,38.57 -2.34,32.54 -6.94,77.23 -14.56,126.74 -7.6,49.48 -16.88,93.42 -24.51,125.14 -3.75,15.91 -7.03,28.7 -9.47,37.48l-2.84 10.31c-0.25,1.19 -0.69,2.38 -1.16,3.5 0.13,-1.22 0.34,-2.44 0.66,-3.62 0.56,-2.63 1.37,-6 2.31,-10.29 2.16,-8.87 5.13,-21.75 8.72,-37.66 7.06,-31.85 16,-76.01 23.69,-125.14 7.66,-49.13 12.44,-93.98 15.44,-126.46 1.44,-16.22 2.47,-29.44 3.13,-38.5 0.37,-4.32 0.62,-7.85 0.9,-10.32 -0.03,0 -0.03,-0.03 -0.03,-0.03 0,-1.25 0.13,-2.47 0.41,-3.72l0 0 0 0z"
   id="path253" />
   <path
   class="fil15"
   d="M979.35 679.88c-4.04,1.54 -8.29,2.44 -12.6,2.69 -5.1,0.66 -10.31,0.97 -15.44,0.97 -5.19,0 -10.35,-0.31 -15.47,-0.97 -10.28,-1.25 -20.47,-3.75 -30.19,-7.44 -4.07,-1.25 -7.97,-3.22 -11.51,-5.62 13.63,4.62 27.76,8.12 42.01,10.28 7.31,0.66 14.78,1.03 22.16,1.03 7,0 14.1,-0.31 21.07,-0.9l-0.03 -0.04 0 0z"
   id="path255" />
   <path
   class="fil15"
   d="M811.98 650.72c-20.54,-5 -39.89,-14.22 -56.67,-27.06 0.44,-0.63 12.47,6.65 28.13,14.06 15.66,7.44 28.79,12.28 28.54,13z"
   id="path257" />
   <path
   class="fil15"
   d="M713.02 584.59c0,0.75 -0.25,1.31 -0.59,1.31 -0.34,0 -0.56,-0.56 -0.56,-1.31 0,-0.78 0.25,-1.35 0.56,-1.35 0.31,0 0.59,0.6 0.59,1.35z"
   id="path259" />
   <path
   class="fil0"
   d="M703.24 368.43c-0.03,-1.09 -0.09,-2.25 -0.09,-3.37 0,-5.41 0.62,-10.85 1.78,-16.13 0.59,-6.47 2.06,-12.91 4.41,-19.04 0.03,1.28 0.06,2.53 0.06,3.82 0,5.28 -0.6,10.56 -1.81,15.66 -0.57,6.53 -2.07,12.94 -4.35,19.06l0 0z"
   id="path261" />
   <path
   class="fil0"
   d="M792.25 353.46c-3.97,-2.31 -7.72,-5.1 -11.03,-8.19 -5.97,-4.62 -11.16,-7.91 -10.78,-8.63 4.65,1.04 8.94,3.29 12.41,6.5 6.15,4.76 9.94,9.85 9.4,10.32l0 0z"
   id="path263" />
   <path
   class="fil0"
   d="M630.35 398.22c-3.9,-0.78 -7.62,-2.41 -10.81,-4.76 -5.63,-3.31 -9.84,-6.43 -9.5,-7.12 3.91,0.78 7.63,2.44 10.81,4.78 5.63,3.25 9.85,6.41 9.5,7.09l0 0 0 0.01z"
   id="path265" />
   <path
   class="fil0"
   d="M618.88 463.41c-5.59,3.16 -11.65,5.51 -17.91,7.04 -5.93,2.34 -12.25,3.84 -18.62,4.43 5.59,-3.09 11.62,-5.5 17.84,-7.03 6,-2.31 12.32,-3.81 18.69,-4.44l0 0 0 0z"
   id="path267" />
   <path
   class="fil0"
   d="M575.85 574.21c-3.69,-8.56 -5.6,-17.78 -5.6,-27.13 0,-2.62 0.19,-5.25 0.47,-7.81 1.5,5.66 2.5,11.53 2.94,17.38 1.31,5.78 2.03,11.68 2.19,17.56l0 0z"
   id="path269" />
   <path
   class="fil0"
   d="M755.15 396.5c-6,2.59 -12.22,4.72 -18.56,6.34 -6.03,2.44 -12.32,4.44 -18.69,5.85 11.19,-7.04 24,-11.25 37.25,-12.19l0 0z"
   id="path271" />
   <path
   class="fil0"
   d="M825.7 287.57c-7.91,-0.09 -15.85,-1.12 -23.51,-3.03 -7.84,-1.03 -15.56,-3 -23,-5.72 7.91,0.1 15.88,1.16 23.53,3.1 7.82,1.03 15.57,2.94 22.98,5.65l0 0z"
   id="path273" />
   <path
   class="fil0"
   d="M880.7 290.17c0.47,-5.78 1.91,-11.47 4.16,-16.78 1.38,-5.66 3.66,-11.07 6.69,-15.98 -0.53,5.75 -1.94,11.44 -4.16,16.79 -1.4,5.62 -3.65,11 -6.69,15.97l0 0z"
   id="path275" />
   <path
   class="fil0"
   d="M929.21 350.58c-9.69,-7.59 -17.44,-17.31 -22.56,-28.44 4.34,4.22 8.28,8.88 11.69,13.88 4.09,4.47 7.78,9.35 10.87,14.57l0 0 0 -0.01z"
   id="path277" />
   <path
   class="fil0"
   d="M876.92 403c-1.75,-5.6 -2.72,-11.47 -2.78,-17.38 -0.44,-2.87 -0.66,-5.87 -0.66,-8.81 0,-2.94 0.22,-5.88 0.66,-8.79 1.85,5.6 2.78,11.48 2.78,17.41 0.47,2.91 0.72,5.85 0.72,8.79 0,2.93 -0.25,5.87 -0.72,8.78l0 0z"
   id="path279" />
   <path
   class="fil0"
   d="M820.63 432.13c-0.47,0.56 -5.12,-2.72 -10,-7.35 -4.81,-4.65 -8.69,-8.87 -8.16,-9.37 0.53,-0.54 5.13,2.78 9.97,7.34 4.85,4.6 8.72,8.85 8.19,9.38l0 0z"
   id="path281" />
   <path
   class="fil0"
   d="M849.01 470.6c-7.65,5.03 -16.66,7.72 -25.84,7.72 -0.6,0 -1.16,0 -1.75,-0.03 4.37,-1.97 8.97,-3.44 13.68,-4.34 4.47,-1.69 9.19,-2.82 13.91,-3.35l0 0 0 0z"
   id="path283" />
   <path
   class="fil0"
   d="M948.15 440.16c-3.25,-7.84 -4.97,-16.28 -4.97,-24.82 0,-2.9 0.19,-5.81 0.57,-8.72 1.46,5.47 2.34,11.07 2.62,16.69 1.19,5.57 1.78,11.19 1.78,16.85z"
   id="path285" />
   <path
   class="fil0"
   d="M926.87 513.61c-3.56,-4.13 -6.47,-8.85 -8.53,-13.91 -2.85,-4.69 -4.97,-9.81 -6.16,-15.13 3.56,4.13 6.47,8.82 8.53,13.91 2.88,4.66 4.94,9.78 6.16,15.13l0 0z"
   id="path287" />
   <path
   class="fil0"
   d="M849.67 563.27c0.87,-6.65 2.66,-13.22 5.16,-19.37 1.78,-6.47 4.47,-12.73 7.93,-18.48 -0.84,6.63 -2.62,13.16 -5.12,19.38 -1.81,6.47 -4.47,12.69 -7.94,18.47l-0.03 0 0 0 0 0z"
   id="path289" />
   <path
   class="fil0"
   d="M817.32 605c-2.53,-3.5 -4.41,-7.47 -5.47,-11.66 -1.87,-3.94 -2.91,-8.19 -3.03,-12.53 2.63,3.47 4.5,7.44 5.53,11.65 1.88,3.91 2.91,8.16 3.03,12.54l-0.06 0 0 0z"
   id="path291" />
   <path
   class="fil0"
   d="M930.59 597.4c-4.88,4 -10.35,7.35 -16.16,9.82 -5.44,3.31 -11.32,5.81 -17.44,7.44 4.91,-4.01 10.38,-7.32 16.22,-9.85 5.41,-3.25 11.28,-5.78 17.38,-7.41l0 0z"
   id="path293" />
   <path
   class="fil0"
   d="M858.33 660.16c-1.53,-3.19 -2.35,-6.69 -2.35,-10.28 0,-0.13 0,-0.31 0,-0.44 -0.59,-6.09 -0.47,-11.06 0.32,-11.09 1.56,3.19 2.37,6.72 2.37,10.31 0,0.13 0,0.34 0,0.5 0.56,6 0.44,10.97 -0.34,11l0 0z"
   id="path295" />
   <path
   class="fil0"
   d="M774.81 661.63c-0.59,0.41 -4.03,-4.03 -5.5,-10.59 -0.62,-1.82 -0.97,-3.72 -0.97,-5.63 0,-2.19 0.41,-4.34 1.22,-6.34 1.13,3.68 1.91,7.5 2.38,11.31 1.28,3.66 2.22,7.44 2.87,11.25l0 0z"
   id="path297" />
   <path
   class="fil0"
   d="M918.12 692.17c-3.97,2.65 -8.38,4.62 -13.07,5.65 -4.37,1.88 -9.09,2.94 -13.84,3.13 3.93,-2.69 8.34,-4.59 13.03,-5.66 4.37,-1.84 9.09,-2.9 13.88,-3.12l0 0 0 0z"
   id="path299" />
   <path
   class="fil0"
   d="M980.19 713.39c-0.72,0 -2.13,-4.03 -3.09,-9.25 -0.97,-5.19 -1.25,-9.57 -0.5,-9.69 0.71,-0.19 2.09,3.97 3.12,9.19 1,5.25 1.22,9.56 0.47,9.75l0 0 0 0z"
   id="path301" />
   <path
   class="fil0"
   d="M988.16 641.28c-2.91,-3.21 -5.1,-6.96 -6.47,-11.06 -2.16,-3.72 -3.53,-7.84 -4.03,-12.13 2.9,3.22 5.09,6.97 6.5,11.07 2.12,3.69 3.5,7.84 4,12.12z"
   id="path303" />
   <path
   class="fil0"
   d="M1012.25 562.59c0.41,0.62 -4.34,4.22 -10.59,8.06 -3.56,2.69 -7.66,4.66 -12,5.72 2.97,-3.31 6.59,-6.06 10.62,-8 3.54,-2.72 7.66,-4.66 11.98,-5.78l0 0 -0.01 0z"
   id="path305" />
   <path
   class="fil0"
   d="M1013.66 517.42c-2.81,-3.37 -4.72,-7.47 -5.44,-11.84 -1,-2.69 -1.53,-5.57 -1.53,-8.44 0,-1.5 0.13,-3.03 0.44,-4.57 1.72,3.94 2.97,8.1 3.62,12.35 1.57,4 2.57,8.22 2.91,12.5l0 0 0 0z"
   id="path307" />
   <path
   class="fil0"
   d="M1038.32 413.69c-3.62,4.25 -7.94,7.97 -12.66,10.94 -4.28,3.65 -9.09,6.62 -14.25,8.78 3.6,-4.28 7.88,-7.97 12.66,-10.94 4.22,-3.69 9.03,-6.66 14.25,-8.78l0 0 0 0z"
   id="path309" />
   <path
   class="fil0"
   d="M1042.82 381.21c-0.43,0.57 -5.19,-2.31 -9.44,-7.84 -2.93,-3.03 -4.75,-6.97 -5.15,-11.19 0.75,-0.28 3.25,4.44 7.15,9.53 3.94,5.1 7.88,8.85 7.44,9.5z"
   id="path311" />
   <path
   class="fil0"
   d="M1080.58 452.54c-0.1,-1.07 -0.13,-2.13 -0.13,-3.19 0,-4.44 0.56,-8.81 1.72,-13.1 0.53,-5.47 1.94,-10.81 4.16,-15.81 0.09,1.12 0.12,2.31 0.12,3.44 0,4.31 -0.56,8.68 -1.68,12.84 -0.54,5.47 -1.97,10.82 -4.19,15.82l0 0 0 0 0 0z"
   id="path313" />
   <path
   class="fil0"
   d="M1104.02 500.73c-4.88,-0.37 -9.6,-1.69 -13.97,-3.78 -4.69,-1.31 -9.1,-3.47 -13,-6.34 4.87,0.4 9.56,1.72 13.97,3.78 4.65,1.31 9.06,3.47 13,6.34l0 0z"
   id="path315" />
   <path
   class="fil0"
   d="M1097.96 571.46c-3,-3.5 -5.38,-7.56 -6.88,-11.91 -2.34,-4 -3.84,-8.44 -4.5,-13.03 5.37,7.47 9.25,15.94 11.38,24.94l0 0z"
   id="path317" />
   <path
   class="fil0"
   d="M1175.62 531.99c-3.65,5 -7.72,9.69 -12.19,13.97 -3.81,4.87 -8.06,9.5 -12.69,13.63 2.54,-5.79 6.13,-11.04 10.66,-15.44 3.91,-4.94 8.72,-9.1 14.22,-12.16l0 0z"
   id="path319" />
   <path
   class="fil0"
   d="M1223.48 542.99c-4.32,-2.81 -8.1,-6.28 -11.26,-10.32 -3.75,-3.5 -6.84,-7.65 -9.22,-12.22 8.07,6.29 15.07,13.91 20.57,22.57l-0.09 -0.03 0 0 0 0z"
   id="path321" />
   <polygon
   class="fil16"
   points="1323.33,410.87 1323.33,381.78 1308.02,381.78 1331.52,348.87 1355.03,381.78 1340.3,381.78 1340.3,410.87 "
   id="polygon323" />
   <polygon
   class="fil16"
   points="1292.02,435.69 1292.02,415.34 1281.33,415.34 1297.8,392.34 1314.24,415.34 1303.93,415.34 1303.93,435.69 "
   id="polygon325" />
   <path
   class="fil15"
   d="M1095.42 1223.72c-0.81,0.15 -1.65,0.31 -2.5,0.37l-7.56 1c-3.34,0.32 -7.5,0.88 -12.32,1.72 -4.84,0.91 -10.28,1.69 -16.69,3.13 -60.44,12.66 -116.7,40.97 -162.89,81.91 -21.66,19.45 -40.98,41.73 -57.04,65.98 -37.38,56.67 -57.86,123.15 -58.61,191.1l0 4.53 -2.4 -3.82c-13.32,-20.41 -30.13,-38.41 -49.64,-53 -64.91,-48.67 -152.77,-66.26 -221.72,-54.48l-12.78 2.66c-2.09,0.37 -4.19,0.93 -6.22,1.65l-6.09 1.97c-4.07,1.41 -8.22,2.34 -12.03,4.06l-11.54 5.16c-3.78,1.6 -7.53,3.44 -11.12,5.44l-10.76 5.72 -10.31 6.41c-3.38,2.03 -6.66,4.25 -9.78,6.62 -23.41,17.04 -44.17,37.7 -61.32,60.98 -91.36,124.52 -52.45,71.29 -1.38,-1.12 17.28,-23.66 38.16,-44.57 61.79,-61.79 3.19,-2.41 6.47,-4.69 9.88,-6.73l10.28 -6.53 10.85 -5.78c3.65,-2.06 7.4,-3.91 11.25,-5.5l11.63 -5.16c3.87,-1.72 8.09,-2.72 12.15,-4.19l6.19 -1.93c2.07,-0.75 4.19,-1.32 6.35,-1.69l12.94 -2.75c69.73,-12 158.15,5.62 223.72,54.79 19.72,14.84 36.79,33.06 50.29,53.72l-2.44 0.69c0.72,-68.45 21.38,-135.36 59.26,-192.34 16.22,-24.47 35.6,-46.82 57.51,-66.26 18.97,-16.72 39.78,-31.48 61.85,-43.88 31.75,-17.69 66.32,-30.48 102.04,-37.57 6.29,-1.38 11.91,-2.16 16.79,-2.88 4.91,-0.75 9,-1.31 12.38,-1.56l7.56 -0.69c1.56,0.03 2.44,0.03 2.44,0.03l-0.01 0.01z"
   id="path327" />
   <circle
   class="fil22 str0"
   cx="1046.54"
   cy="1530.26"
   r="151.99"
   id="circle329" />
   <path
   class="fil23"
   d="M753.84 516.45c0,0.75 0,1.38 -0.5,1.38 -0.53,0 -0.47,-0.63 -0.47,-1.38 0,-0.78 0,-1.34 0.47,-1.34 0.47,0 0.5,0.59 0.5,1.34z"
   id="path331" />
   <path
   class="fil23"
   d="M713.05 584.59c0,0.75 -0.25,1.31 -0.62,1.31 -0.34,0 -0.56,-0.56 -0.56,-1.31 0,-0.78 0.25,-1.35 0.56,-1.35 0.31,0 0.62,0.6 0.62,1.35z"
   id="path333" />
   <path
   class="fil23"
   d="m 1001.6247,1487.07 c 16.23,0 29.67,4.5 40.35,13.5 10.72,9 16.13,20.72 16.29,35.13 l 0.22,0.44 -86.51994,36.32 c 7.71997,9.53 18.25997,14.28 31.56994,14.28 13.32,0 24.26,-5.22 32.85,-15.57 l 14.75,16.23 c -14.12,14.56 -30.78,21.87 -49.94,21.87 -16.81997,0 -31.18994,-5.56 -43.22991,-16.72 -12.06,-11.15 -18.06,-25.84 -18.06,-44.13 0,-12.62 3.09,-23.75 9.34,-33.35 6.22,-9.56 13.96997,-16.66 23.18997,-21.19 9.21997,-4.53 18.93997,-6.81 29.18994,-6.81 z"
   id="path335" />
   <path
   class="fil23"
   d="M1396.91 1512.73c4,-7.44 9.5,-13.53 16.41,-18.29 6.9,-4.71 14.22,-7.22 21.94,-7.34l0.22 25.16 -1.35 0c-12.31,0 -21.6,4.03 -27.81,12.03 -6.29,8.07 -9.41,18.82 -9.41,32.35l0 50.85 -24.94 0 0 -118.61 24.94 0 0 23.85z"
   id="path337" />
   <path
   class="fil23"
   d="m 1136.4647,1540.8 c 3.53,1.5 7.28,3.59 11.28,6.28 8.03,5.34 12.03,13.66 12.03,24.97 0,11.28 -4.06,20.32 -12.25,27.07 -8.19,6.75 -18.66,10.15 -31.44,10.15 -8.63,0 -17.57,-1.56 -26.85,-4.68 -9.31,-3.13 -17.53,-7.51 -24.66,-13.19 l 12.03,-19.35 c 13.82,10.38 27.23,15.56 40.13,15.56 5.66,0 10.1,-1.28 13.38,-3.87 3.28,-2.6 4.91,-5.88 4.91,-9.94 0,-5.94 -7.88,-11.28 -23.63,-16.03 -1.19,-0.47 -2.1,-0.75 -2.66,-0.88 -24.69,-6.69 -37.03,-17.85 -37.03,-33.47 0,-10.97 4.28,-19.79 12.81,-26.41 8.56,-6.6 19.66,-9.94 33.35,-9.94 13.69,0 26.6,4.06 38.79,12.06 l -9.35,18.5 c -9.66,-6.4 -20.16,-9.59 -31.44,-9.59 -5.94,0 -10.78,1.09 -14.5,3.22 -3.72,2.19 -5.6,5.4 -5.6,9.72 0,3.84 1.97,6.69 5.82,8.47 2.68,1.34 6.47,2.62 11.28,3.78 4.81,1.19 9.09,2.38 12.81,3.56 3.72,1.22 7.32,2.53 10.78,4 z"
   id="path339" />
   <path
   class="fil23"
   d="m 1205.7247,1582.64 c 2.97,3.32 7.12,4.97 12.5,4.97 5.34,0 10.47,-2.56 15.35,-7.78 l 10.28,17.6 c -8.78,7.91 -18.5,11.84 -29.13,11.84 -10.6,0 -19.69,-3.68 -27.19,-11.06 -7.5,-7.38 -11.25,-17.28 -11.25,-29.75 v -116.83 h 24.97 v 37.25 h 31.22 v 20.07 h -31.22 v 60.19 c 0,5.63 1.47,10.13 4.47,13.51 z"
   id="path341" />
   <path
   class="fil23"
   d="m 1263.1747,1503.57 c 11.4,-10.97 24.94,-16.5 40.56,-16.5 15.6,0 28.45,7.47 38.57,22.31 v -20.5 h 24.98 v 118.61 h -24.98 v -19.41 c -4.78,6.85 -10.84,12.07 -18.16,15.72 -7.37,3.66 -14.78,5.47 -22.22,5.47 -15,0 -28.07,-5.68 -39.22,-16.94 -11.13,-11.28 -16.72,-26.16 -16.72,-44.63 0,-18.41 5.72,-33.1 17.19,-44.13 z"
   id="path343" />
   <path
   class="fil23"
   d="M1046.54 1378.27c83.92,0 151.99,68.04 151.99,151.99 0,83.95 -68.07,151.99 -151.99,151.99 -83.95,0 -152.02,-68.04 -152.02,-151.99 0,-83.95 68.07,-151.99 152.02,-151.99zm1006.03 64.01l0 68.2c3.59,-7.25 8.97,-12.97 16.16,-17.16 7.22,-4.16 14.97,-6.25 23.31,-6.25 13.38,0 24.16,4.12 32.42,12.28 8.25,8.16 12.4,20 12.4,35.44l0 72.7 -24.97 0 0 -65.13c0,-21.85 -9.06,-32.76 -27.19,-32.76 -8.66,0 -16.16,2.88 -22.53,8.57 -6.41,5.75 -9.6,14.09 -9.6,25.13l0 64.19 -24.97 0 0 -165.21 24.97 0zm-90.92 74.01c15.94,3.88 28,9.28 36.1,16.25 8.12,7.04 12.16,17.29 12.16,30.88 0,13.6 -5.13,24.66 -15.38,33.13 -10.28,8.47 -23.72,12.72 -40.38,12.72 -24.35,0 -46.01,-8.4 -64.89,-25.19l16.54 -19.87c15.75,13.69 32.09,20.5 49.03,20.5 8.47,0 15.19,-1.78 20.19,-5.44 4.94,-3.66 7.47,-8.47 7.47,-14.5 0,-6 -2.34,-10.69 -7.06,-14.04 -4.66,-3.34 -12.75,-6.37 -24.16,-9.15 -11.47,-2.72 -20.13,-5.28 -26.07,-7.57 -5.97,-2.31 -11.25,-5.31 -15.84,-9.03 -9.22,-6.97 -13.82,-17.66 -13.82,-32.1 0,-14.41 5.25,-25.53 15.69,-33.32 10.47,-7.78 23.45,-11.72 38.92,-11.72 9.97,0 19.84,1.66 29.66,4.94 9.81,3.25 18.25,7.85 25.41,13.78l-14.07 19.85c-4.59,-4.16 -10.81,-7.56 -18.72,-10.22 -7.84,-2.72 -15.63,-4.06 -23.25,-4.06 -7.69,0 -13.97,1.59 -18.85,4.72 -4.94,3.12 -7.37,7.81 -7.37,14.12 0,6.35 2.43,11.16 7.37,14.54 4.88,3.31 15.32,6.93 31.32,10.78l0 0zm432.38 -12.69c11.28,11 16.94,25.63 16.94,43.91 0,18.26 -5.63,33.14 -16.82,44.57 -11.22,11.44 -24.35,17.19 -39.25,17.19 -14.94,0 -28.35,-6.56 -40.26,-19.62l0 61.07 -24.97 0 0 -161.84 24.97 0 0 20.72c9.84,-15 22.66,-22.53 38.6,-22.53 15.91,0 29.5,5.53 40.79,16.53l0 0zm-136.87 1.22c11.91,11.81 17.85,26.29 17.85,43.35 0,17.1 -5.94,31.57 -17.85,43.38 -11.87,11.79 -26.72,17.72 -44.57,17.72 -17.81,0 -32.69,-5.93 -44.6,-17.72 -11.91,-11.81 -17.81,-26.28 -17.81,-43.38 0,-17.06 5.91,-31.53 17.81,-43.35 11.91,-11.81 26.79,-17.75 44.6,-17.75 17.85,0 32.7,5.94 44.57,17.75zm-387.81 -15.94l0 118.61 -24.97 0 0 -19.41c-4.78,6.85 -10.84,12.07 -18.16,15.72 -7.37,3.66 -14.78,5.47 -22.22,5.47 -15,0 -28.07,-5.68 -39.22,-16.94 -11.13,-11.31 -16.72,-26.16 -16.72,-44.63 0,-18.41 5.71,-33.1 17.19,-44.13 11.4,-10.97 24.94,-16.5 40.56,-16.5 15.6,0 28.45,7.47 38.57,22.31l0 -20.5 24.98 0 -0.01 0zm-161.55 93.76c2.97,3.32 7.16,4.97 12.5,4.97 5.34,0 10.47,-2.56 15.35,-7.78l10.28 17.6c-8.78,7.91 -18.5,11.84 -29.1,11.84 -10.63,0 -19.72,-3.68 -27.22,-11.06 -7.5,-7.38 -11.25,-17.28 -11.25,-29.75l0 -116.83 24.97 0 0 37.25 31.22 0 0 20.07 -31.22 0 0 60.19c0,5.63 1.47,10.13 4.47,13.51l0 -0.01zm-335.83 -93.76l24.94 0 0 23.85c4,-7.44 9.5,-13.53 16.41,-18.29 6.9,-4.75 14.22,-7.22 21.94,-7.37l0.22 25.19 -1.35 0c-12.31,0 -21.6,4.03 -27.81,12.03 -6.29,8.07 -9.41,18.82 -9.41,32.35l0 50.85 -24.94 0 0 -118.61zm-33.92 -23.66c10.85,9.06 16.26,23.07 16.26,41.94 0,18.88 -5.54,32.7 -16.6,41.48 -11.06,8.75 -28.03,13.13 -50.94,13.13l-27.63 0 0 45.72 -26.29 0 0 -155.86 53.48 0c23.66,0 40.85,4.53 51.73,13.59l-0.01 0zm300.49 75.58c3.53,1.5 7.28,3.59 11.28,6.28 8.03,5.34 12.03,13.66 12.03,24.97 0,11.28 -4.06,20.32 -12.25,27.07 -8.19,6.75 -18.66,10.15 -31.44,10.15 -8.63,0 -17.57,-1.56 -26.85,-4.68 -9.31,-3.13 -17.53,-7.51 -24.66,-13.19l12.03 -19.35c13.82,10.38 27.23,15.56 40.13,15.56 5.66,0 10.1,-1.28 13.38,-3.87 3.28,-2.6 4.91,-5.91 4.91,-9.94 0,-5.94 -7.88,-11.28 -23.63,-16.03 -1.19,-0.47 -2.1,-0.75 -2.66,-0.88 -24.69,-6.69 -37.03,-17.85 -37.03,-33.47 0,-10.97 4.28,-19.79 12.81,-26.41 8.56,-6.6 19.66,-9.94 33.35,-9.94 13.69,0 26.6,4.06 38.79,12.06l-9.35 18.5c-9.66,-6.4 -20.16,-9.59 -31.44,-9.59 -5.97,0 -10.78,1.09 -14.5,3.22 -3.72,2.19 -5.6,5.4 -5.6,9.72 0,3.84 1.97,6.69 5.82,8.47 2.68,1.34 6.47,2.62 11.28,3.78 4.81,1.19 9.09,2.38 12.81,3.56 3.72,1.22 7.32,2.53 10.78,4l0.01 0.01zm-134.84 -53.73c16.23,0 29.67,4.53 40.35,13.5 10.72,9 16.13,20.72 16.26,35.13l0.25 0.44 -86.52 36.32c7.72,9.53 18.26,14.28 31.57,14.28 13.32,0 24.26,-5.22 32.85,-15.57l14.75 16.23c-14.12,14.56 -30.78,21.87 -49.94,21.87 -16.82,0 -31.19,-5.56 -43.26,-16.72 -12.03,-11.15 -18.03,-25.84 -18.03,-44.13 0,-12.66 3.09,-23.75 9.34,-33.35 6.22,-9.56 13.97,-16.66 23.19,-21.19 9.22,-4.53 18.94,-6.81 29.2,-6.81l-0.01 0z"
   id="path345" />
   <path
   class="fil23"
   d="M2257.16 1504.82c11.91,11.81 17.85,26.29 17.85,43.35 0,17.1 -5.94,31.57 -17.85,43.38 -11.87,11.79 -26.72,17.72 -44.57,17.72 -17.84,0 -32.69,-5.93 -44.6,-17.72 -11.91,-11.81 -17.81,-26.28 -17.81,-43.38 0,-17.06 5.91,-31.53 17.81,-43.35 11.91,-11.81 26.76,-17.75 44.6,-17.75 17.85,0 32.7,5.94 44.57,17.75z"
   id="path347" />
   <path
   class="fil23"
   d="M2394.03 1503.6c11.28,11 16.94,25.63 16.94,43.91 0,18.26 -5.63,33.14 -16.82,44.57 -11.22,11.44 -24.35,17.19 -39.25,17.19 -14.94,0 -28.35,-6.56 -40.26,-19.62l0 61.07 -24.97 0 0 -161.84 24.97 0 0 20.72c9.84,-15 22.66,-22.53 38.6,-22.53 15.91,0 29.5,5.53 40.79,16.53l0 0z"
   id="path349" />
   <path
   class="fil23"
   d="m 1459.5747,1516.29 c 15.97,3.88 28,9.28 36.1,16.25 8.12,7.04 12.16,17.29 12.16,30.88 0,13.6 -5.16,24.66 -15.38,33.13 -10.28,8.47 -23.72,12.72 -40.38,12.72 -24.35,0 -46.01,-8.4 -64.89,-25.19 l 16.54,-19.87 c 15.75,13.69 32.09,20.5 49.03,20.5 8.47,0 15.19,-1.81 20.19,-5.44 4.94,-3.66 7.47,-8.47 7.47,-14.5 0,-6 -2.34,-10.69 -7.06,-14.04 -4.66,-3.34 -12.75,-6.37 -24.16,-9.15 -11.47,-2.72 -20.13,-5.28 -26.07,-7.57 -5.97,-2.31 -11.25,-5.31 -15.84,-9.03 -9.22,-6.97 -13.82,-17.66 -13.82,-32.1 0,-14.41 5.25,-25.53 15.69,-33.32 10.47,-7.78 23.45,-11.72 38.92,-11.72 9.97,0 19.84,1.66 29.66,4.94 9.81,3.25 18.25,7.85 25.41,13.78 l -14.07,19.85 c -4.59,-4.16 -10.81,-7.59 -18.72,-10.22 -7.84,-2.72 -15.63,-4.06 -23.25,-4.06 -7.69,0 -13.97,1.59 -18.85,4.72 -4.94,3.12 -7.37,7.81 -7.37,14.12 0,6.35 2.43,11.16 7.37,14.54 4.88,3.31 15.35,6.93 31.32,10.78 z"
   id="path351" />
   <path
   class="fil23"
   d="m 1525.5247,1442.28 h 24.97 v 68.23 c 3.59,-7.28 8.97,-13 16.16,-17.19 7.22,-4.16 14.97,-6.25 23.31,-6.25 13.38,0 24.16,4.12 32.42,12.28 8.25,8.16 12.4,20 12.4,35.44 v 72.7 h -24.97 v -65.13 c 0,-21.85 -9.06,-32.76 -27.19,-32.76 -8.66,0 -16.16,2.88 -22.53,8.57 -6.41,5.75 -9.6,14.09 -9.6,25.13 v 64.19 h -24.97 z"
   id="path353" />
   <path
   class="fil23"
   d="m 1001.6247,1487.1 c 16.23,0 29.67,4.47 40.35,13.47 10.72,9 16.13,20.72 16.26,35.13 l 0.25,0.44 -86.51994,36.32 c 7.71997,9.53 18.25997,14.28 31.56994,14.28 13.32,0 24.26,-5.22 32.85,-15.57 l 14.75,16.23 c -14.16,14.56 -30.78,21.87 -49.94,21.87 -16.81997,0 -31.18994,-5.56 -43.25991,-16.72 -12.03,-11.15 -18.03,-25.84 -18.03,-44.13 0,-12.66 3.09,-23.75 9.34,-33.35 6.22,-9.56 13.96997,-16.66 23.18997,-21.19 9.21997,-4.53 18.93997,-6.78 29.19994,-6.78 z"
   id="path355" />
   <path
   class="fil23"
   d="M1413.32 1494.44c6.9,-4.71 14.22,-7.22 21.94,-7.34l0.22 25.16 -1.35 0c-12.31,0 -21.6,4.03 -27.85,12.06 -6.25,8.04 -9.37,18.79 -9.37,32.32l0 50.85 -24.98 0 0 -118.61 24.98 0 0 23.85c4,-7.44 9.5,-13.53 16.41,-18.28l0 -0.01z"
   id="path357" />
   <path
   class="fil23"
   d="m 1136.4647,1540.8 c 3.53,1.5 7.28,3.59 11.28,6.28 8.03,5.34 12.03,13.66 12.03,24.97 0,11.28 -4.06,20.32 -12.25,27.07 -8.19,6.75 -18.66,10.15 -31.44,10.15 -8.63,0 -17.57,-1.56 -26.85,-4.68 -9.31,-3.13 -17.53,-7.51 -24.66,-13.16 l 12.03,-19.38 c 13.82,10.38 27.23,15.56 40.13,15.56 5.66,0 10.1,-1.28 13.38,-3.87 3.28,-2.6 4.91,-5.88 4.91,-9.94 0,-5.94 -7.88,-11.28 -23.63,-16.03 -1.19,-0.47 -2.1,-0.75 -2.66,-0.88 -24.69,-6.69 -37.03,-17.85 -37.03,-33.47 0,-10.97 4.28,-19.79 12.81,-26.41 8.56,-6.6 19.66,-9.91 33.35,-9.91 13.69,0 26.6,4.03 38.79,12.03 l -9.35,18.5 c -9.66,-6.4 -20.16,-9.59 -31.44,-9.59 -5.94,0 -10.78,1.09 -14.47,3.22 -3.72,2.19 -5.63,5.4 -5.63,9.72 0,3.84 1.97,6.69 5.82,8.47 2.68,1.34 6.47,2.59 11.28,3.78 4.81,1.22 9.09,2.38 12.81,3.56 3.72,1.22 7.32,2.53 10.78,4 z"
   id="path359" />
   <path
   class="fil23"
   d="m 1205.7247,1582.64 c 2.97,3.32 7.12,4.97 12.5,4.97 5.34,0 10.47,-2.56 15.35,-7.78 l 10.28,17.6 c -8.78,7.91 -18.5,11.84 -29.13,11.84 -10.6,0 -19.69,-3.68 -27.19,-11.06 -7.5,-7.38 -11.25,-17.28 -11.25,-29.75 v -116.83 h 24.97 v 37.25 h 31.22 v 20.07 h -31.22 v 60.19 c 0,5.63 1.47,10.13 4.47,13.51 z"
   id="path361" />
   <path
   class="fil23"
   d="m 1367.2747,1488.88 v 118.61 h -24.97 v -19.41 c -4.78,6.85 -10.84,12.07 -18.16,15.72 -7.37,3.66 -14.78,5.47 -22.22,5.47 -15,0 -28.07,-5.68 -39.22,-16.94 -11.13,-11.28 -16.72,-26.16 -16.72,-44.63 0,-18.41 5.71,-33.1 17.15,-44.13 11.44,-10.97 24.98,-16.47 40.6,-16.47 15.6,0 28.45,7.44 38.57,22.28 v -20.5 h 24.98 z"
   id="path363" />
   <path
   class="fil23"
   d="M2257.16 1504.82c11.91,11.78 17.85,26.29 17.85,43.35 0,17.1 -5.94,31.57 -17.85,43.38 -11.84,11.79 -26.72,17.72 -44.6,17.72 -17.81,0 -32.66,-5.9 -44.57,-17.72 -11.91,-11.81 -17.81,-26.28 -17.81,-43.38 0,-17.06 5.91,-31.57 17.81,-43.35 11.91,-11.81 26.76,-17.72 44.57,-17.72 17.88,0 32.76,5.91 44.6,17.72z"
   id="path365" />
   <path
   class="fil23"
   d="M2394.03 1503.6c11.28,11 16.94,25.63 16.94,43.91 0,18.26 -5.63,33.14 -16.82,44.57 -11.22,11.44 -24.35,17.19 -39.25,17.19 -14.94,0 -28.35,-6.56 -40.26,-19.62l0 61.07 -24.97 0 0 -161.84 24.97 0 0 20.72c9.84,-15 22.66,-22.5 38.6,-22.5 15.91,0 29.5,5.5 40.79,16.5l0 0z"
   id="path367" />
   <path
   class="fil23"
   d="m 1459.5747,1516.29 c 15.97,3.88 28,9.28 36.1,16.25 8.12,7.04 12.16,17.29 12.16,30.88 0,13.6 -5.16,24.66 -15.38,33.13 -10.28,8.47 -23.72,12.72 -40.38,12.72 -24.35,0 -46.01,-8.4 -64.86,-25.19 l 16.51,-19.87 c 15.75,13.69 32.1,20.5 49.04,20.5 8.46,0 15.19,-1.81 20.19,-5.44 4.93,-3.66 7.47,-8.47 7.47,-14.5 0,-6 -2.35,-10.69 -7.07,-14.04 -4.65,-3.34 -12.75,-6.37 -24.19,-9.15 -11.44,-2.72 -20.1,-5.28 -26.04,-7.57 -5.97,-2.31 -11.25,-5.31 -15.84,-9.03 -9.22,-6.97 -13.82,-17.66 -13.82,-32.1 0,-14.41 5.25,-25.53 15.69,-33.32 10.47,-7.78 23.45,-11.72 38.92,-11.72 9.97,0 19.84,1.66 29.66,4.94 9.81,3.25 18.25,7.85 25.41,13.78 l -14.04,19.85 c -4.62,-4.13 -10.84,-7.59 -18.75,-10.25 -7.84,-2.69 -15.63,-4.03 -23.25,-4.03 -7.69,0 -13.97,1.59 -18.85,4.72 -4.94,3.12 -7.37,7.81 -7.37,14.12 0,6.35 2.43,11.16 7.37,14.54 4.88,3.31 15.35,6.94 31.32,10.78 z"
   id="path369" />
   <path
   class="fil23"
   d="m 1550.4947,1442.28 v 68.2 c 3.59,-7.25 8.97,-12.97 16.16,-17.16 7.22,-4.16 14.97,-6.22 23.31,-6.22 13.38,0 24.16,4.09 32.42,12.25 8.25,8.16 12.4,20 12.4,35.44 v 72.7 h -24.97 v -65.13 c 0,-21.85 -9.06,-32.76 -27.19,-32.76 -8.66,0 -16.16,2.88 -22.53,8.57 -6.41,5.75 -9.6,14.09 -9.6,25.13 v 64.19 h -24.97 v -165.21 z"
   id="path371" />
   <path
   class="fil23"
   d="M1286.33 1451.63c23.66,0 40.85,4.53 51.73,13.59 10.84,9.06 16.25,23.07 16.25,41.94 0,18.88 -5.53,32.7 -16.6,41.48 -11.06,8.75 -28.07,13.13 -50.94,13.13l-27.63 0 0 45.72 -26.29 0 0 -155.86 53.48 0 0 0z"
   id="path373" />
   <path
   class="fil24"
   d="m 1007.2364,1554.1072 c -0.19,-0.91 -0.26,-2.32 -0.26,-4.32 0,-12.44 4.16,-22.16 12.44,-29.13 8.26,-7 17.38,-10.44 27.41,-10.44 13.19,0 22.38,4.97 27.54,15.01 l -67.14,28.88 z m 96.01,-17.73 c -0.09,-14.72 -5.66,-26.66 -16.57,-35.85 -10.93,-9.18 -24.66,-13.81 -41.22,-13.81 -10.44,0 -20.38,2.34 -29.79,6.97 -9.4,4.62 -17.31,11.88 -23.68997,21.63 -6.37,9.81 -9.53,21.16 -9.53,34.03 0,18.69 6.13,33.67 18.40997,45.07 12.28,11.38 26.97,17.07 44.16,17.07 19.57,0 36.57,-7.47 50.98,-22.32 l -15.03,-16.59 c -8.79,10.59 -19.94,15.9 -33.57,15.9 -13.57,0 -24.32,-4.84 -32.19,-14.56 l 88.32,-37.1 z"
   id="path375" />
   
   
   
   
   
   <path
   class="fil25"
   d="m 1481.4754,1579.7543 c -7.29,7.38 -16.35,11.04 -27.44,11.04 -11.1,0 -20.26,-3.66 -27.45,-11.04 -7.22,-7.31 -10.81,-16.88 -10.81,-28.56 0,-11.66 3.59,-21.2 10.81,-28.57 7.19,-7.32 16.35,-11 27.45,-11 11.09,0 20.22,3.68 27.44,11 7.15,7.41 10.78,16.91 10.78,28.57 0,11.68 -3.63,21.25 -10.78,28.56 z m -27.44,-90.95 c -18.23,0 -33.39,6.06 -45.54,18.16 -12.16,12.03 -18.22,26.78 -18.22,44.23 0,17.47 6.06,32.22 18.22,44.28 12.15,12.04 27.31,18.1 45.54,18.1 18.19,0 33.38,-6.06 45.47,-18.1 12.16,-12.06 18.22,-26.81 18.22,-44.28 0,-17.45 -6.06,-32.2 -18.22,-44.23 -12.09,-12.1 -27.28,-18.16 -45.47,-18.16 z"
   id="path387" />
   <path
   class="fil25"
   d="m 1619.8954,1577.7972 c -7.43,7.28 -16.12,10.91 -26.19,10.91 -10,0 -18.53,-3.66 -25.5,-11.04 -6.97,-7.31 -10.44,-16.78 -10.44,-28.35 0,-11.5 3.47,-21.09 10.44,-28.78 6.97,-7.66 15.59,-11.47 25.75,-11.47 10.16,0 18.88,3.81 26.19,11.47 7.22,7.69 10.91,17.28 10.91,28.88 0,11.63 -3.75,21.06 -11.16,28.38 z m 19.38,-74.2 c -11.56,-11.22 -25.44,-16.88 -41.66,-16.88 -16.29,0 -29.38,7.72 -39.41,23.04 v -21.2 h -25.51 v 165.28 h 25.51 v -62.38 c 12.12,13.34 25.84,20.03 41.1,20.03 15.22,0 28.59,-5.85 40.07,-17.5 11.4,-11.72 17.19,-26.91 17.19,-45.57 0,-18.66 -5.82,-33.6 -17.29,-44.82 z"
   id="path389" />
   <path
   class="fil25"
   d="m 1328.8283,1488.8043 c -8.5,0 -16.41,2.16 -23.78,6.38 -7.35,4.28 -12.82,10.12 -16.51,17.53 v -69.6 h -25.44 v 168.65 h 25.44 v -65.54 c 0,-11.29 3.29,-19.82 9.82,-25.63 6.5,-5.85 14.19,-8.75 23,-8.75 18.5,0 27.76,11.12 27.76,33.44 v 66.48 h 25.5 v -74.23 c 0,-15.76 -4.22,-27.82 -12.66,-36.2 -8.41,-8.31 -19.44,-12.53 -33.13,-12.53 z"
   id="path391" />
   <path
   class="fil25"
   d="m 1228.4239,1535.2843 c -8.28,-7.13 -20.57,-12.69 -36.88,-16.6 -16.29,-3.97 -26.98,-7.66 -31.94,-11.03 -5.07,-3.47 -7.54,-8.35 -7.54,-14.85 0,-6.44 2.47,-11.22 7.54,-14.41 4.97,-3.18 11.37,-4.81 19.22,-4.81 7.81,0 15.69,1.37 23.75,4.13 8.03,2.72 14.41,6.22 19.13,10.47 l 14.35,-20.29 c -7.32,-6.06 -15.94,-10.78 -25.98,-14.12 -10,-3.32 -20.09,-5 -30.25,-5 -15.82,0 -29.01,4.03 -39.76,12 -10.63,7.9 -15.97,19.28 -15.97,33.97 0,14.75 4.69,25.66 14.06,32.79 4.72,3.78 10.1,6.87 16.19,9.22 6.07,2.34 14.94,4.94 26.6,7.75 11.66,2.81 19.91,5.91 24.69,9.28 4.82,3.44 7.22,8.22 7.22,14.38 0,6.16 -2.59,11.06 -7.65,14.78 -5.1,3.72 -11.94,5.6 -20.6,5.6 -17.28,0 -33.97,-7 -50.07,-20.98 l -16.85,20.29 c 19.26,17.13 41.35,25.72 66.23,25.72 16.97,0 30.73,-4.34 41.23,-12.97 10.44,-8.66 15.66,-19.91 15.66,-33.82 0,-13.87 -4.1,-24.38 -12.38,-31.5 z"
   id="path393" />
   
   
   
   
   
   
   <path
   class="fil5"
   d="M985.03 1634.97c1.47,0.81 2.94,1.65 4.41,2.43 0.47,-2.5 0.87,-4.97 1.16,-7.53 -1.91,1.63 -3.78,3.32 -5.57,5.1l0 0z"
   id="path407" />
   
   <path
   class="fil5"
   d="M1103.77 1629.87c0.25,2.56 0.66,5.03 1.16,7.53 1.5,-0.78 2.96,-1.59 4.4,-2.43 -1.81,-1.79 -3.65,-3.47 -5.56,-5.1l0 0z"
   id="path411" />
   
   
   
   <path
   class="fil29"
   d="M996 1625.59c0.07,-0.03 0.16,-0.09 0.22,-0.13l-0.22 0c0,0.03 0,0.1 0,0.13z"
   id="path419" />
   
   <path
   class="fil28"
   d="M1098.36 1625.46l-0.25 0c0.09,0.03 0.19,0.1 0.25,0.13 0,-0.03 0,-0.09 0,-0.13z"
   id="path423" />
   
   
   
   
   <path
   class="fil31"
   d="M1129.55 1500.48c-0.03,-0.03 -0.06,-0.03 -0.06,-0.07 -1.03,-1.43 -2.09,-2.75 -3.19,-3.87 0,-0.06 0,-0.06 0,-0.06l0 0.06c0,-0.06 0,-0.06 -0.03,-0.06 -0.47,-0.54 -1,-1.04 -1.5,-1.54 -0.15,-0.21 -0.37,-0.34 -0.56,-0.5 -0.31,-0.31 -0.62,-0.59 -0.97,-0.9l0 11.56 4.41 20.16c0.09,0.16 0.12,0.28 0.16,0.47l3.06 3.41 0.03 -0.06 3.19 0c0,-0.28 0,-0.57 0,-0.85 0,-9.56 -1.57,-18.66 -4.38,-27.22 -0.06,-0.19 -0.09,-0.34 -0.15,-0.53l-0.01 0z"
   id="path433" />
   
   
   
   
   
   
   
   
   <path
   class="fil35"
   d="M1088.8 1509.2c0,0.03 0,0.03 -0.03,0.03 0.03,0 0.03,0 0.03,-0.03z"
   id="path451" />
   
   
   
   
   <path
   class="fil34"
   d="M1088.8 1509.23c0,0 0,0 0,-0.03 0,0.03 0,0.03 -0.03,0.03 0.03,0.03 0.03,0.03 0.06,0.09 0,-0.03 -0.03,-0.03 -0.03,-0.09l0 0z"
   id="path461" />
   
   
   
   
   
   
   
   
  </g>
 </g>
</svg>
